<?xml version="1.0" encoding="utf-8"?>
<!-- Generator: Adobe Illustrator 27.5.0, SVG Export Plug-In . SVG Version: 6.00 Build 0)  -->
<svg version="1.1" id="Layer_1" xmlns="http://www.w3.org/2000/svg" xmlns:xlink="http://www.w3.org/1999/xlink" x="0px" y="0px"
	 viewBox="0 0 288 288" style="enable-background:new 0 0 288 288;" xml:space="preserve">
<g id="New_Symbol_6">
</g>
<g>
	<rect x="0" y="0" style="fill-rule:evenodd;clip-rule:evenodd;fill:#FFFFFF;" width="288" height="288"/>
	<path style="fill:#171717;" d="M92.97,124.697c0.328,0.02,0.659,0.037,0.979,0.076c0.435,0.05,0.867,0.104,1.303,0.154
		c0.029-0.258,0.059-0.522,0.085-0.769c-1.177-0.438-2.269-0.906-2.872-1.833l-0.717,0.189c-0.079,0.794-0.184,1.837-0.313,2.998
		c0.1-0.287,0.238-0.598,0.31-0.869C92.152,124.663,92.564,124.675,92.97,124.697z M84.336,142.83
		c-0.589-0.211-0.92-0.757-1.231-1.332c-0.707,1.318-1.576,2.791-2.683,4.4l6.639-1.77c0.002-0.016-0.001-0.028,0-0.047
		c0.034,0.007,0.071,0.014,0.105,0.019l1.29-0.344c1.125-1.545,2.035-2.988,2.781-4.29c-0.596-0.155-1.194-0.311-1.791-0.468
		c0.166-0.239,0.334-0.478,0.498-0.719c0.548,0.182,1.095,0.365,1.645,0.544c0.173-0.314,0.362-0.644,0.513-0.937
		c-0.19-0.053-0.381-0.105-0.579-0.159c0.536-0.462,0.858-0.738,0.979-0.841c-1.844-1.471-4.533-1.809-6.604-2.988
		c-0.109,0.68-0.22,1.335-0.333,1.914c-0.002,0.008-0.014,0.049-0.018,0.061c0.229,0.372,0.423,0.764,0.551,1.184
		c0.063,0.198-0.712,0.875-1.195,1.195c-0.058,0.037-0.144,0.036-0.241,0.018c-0.269,0.642-0.599,1.372-1.025,2.218
		c0.223,0.157,0.44,0.309,0.664,0.467c2.744-3.525,4.039-4.302,5.305-3.395c-1.054,2.077-3.159,2.316-5.304,3.396
		c0.664,0.468,1.353,0.955,2.141,1.51c0.215-0.801,0.314-1.171,0.422-1.565c0.504-0.012,0.9-0.023,0.832-0.022
		c0.374,0.933,0.608,1.511,0.81,2.007C87.122,142.899,85.451,143.227,84.336,142.83z M90.92,129.509
		c-0.025,0.055-0.056,0.104-0.09,0.154c0.076-0.058,0.153-0.118,0.229-0.175C91.012,129.494,90.967,129.502,90.92,129.509z
		 M147.062,124.775c-0.688-0.056-1.391-0.117-2.133-0.175c0.918,0.896,1.579,1.547,2.352,2.304c-0.159,0.161-0.477,0.48-0.96,0.967
		c0.143,0.047,0.285,0.091,0.429,0.138c0.781-1.09,1.447-2.118,2.035-3.089c-0.333-0.029-0.677-0.058-1.015-0.085
		c-0.305,0.368-0.632,0.838-1.02,1.306C146.87,125.623,146.971,125.183,147.062,124.775z M101.606,124.054
		c0.996,0.83,1.847,1.542,2.701,2.255c0.057-0.049,0.113-0.1,0.17-0.149c0.022-0.153,0.038-0.306,0.059-0.461
		c-0.12-0.172-0.268-0.385-0.51-0.733c0.246,0.053,0.429,0.088,0.589,0.117c0.253-2.033,0.469-4.027,0.62-5.509
		c-1.002,0.444-1.719,0.761-2.368,1.047c-0.384-0.255-0.766-0.511-1.149-0.765l-0.285,0.075c-0.117,1.182-0.296,2.92-0.515,4.782
		C101.191,124.527,101.437,124.316,101.606,124.054z M93.915,129.107c-0.152-0.193-0.232-0.491-0.472-0.554
		c-0.376-0.1-0.861-0.036-1.393-0.045c0.505-0.357,0.882-0.622,1.027-0.725c-0.642-0.536-1.368-0.912-1.709-1.518
		c-0.012-0.02-0.004-0.052-0.01-0.074c-0.103,0.907-0.215,1.857-0.337,2.816c0.607,0.173,1.209,0.334,1.823,0.468
		C93.091,129.529,93.552,129.24,93.915,129.107z M145.863,154.827c0.13-0.115,0.272-0.239,0.406-0.356
		c-0.141,0.079-0.283,0.174-0.428,0.287C145.85,154.781,145.854,154.804,145.863,154.827z M142.942,146.391
		c0.003-0.001,0.004-0.002,0.006,0c-0.015-0.346-0.029-0.693-0.044-1.042c-0.006,0.003-0.013,0.007-0.02,0.01
		C142.905,145.701,142.923,146.047,142.942,146.391z M143.088,142.484c0.703,0.525,1.343,1.003,1.949,1.459
		c-1.055,0.124-1.751,0.09-2.198-0.153c0.022,0.519,0.044,1.039,0.065,1.56c0.546-0.293,1.093-0.588,1.64-0.882
		c0.024,0.354,0.046,0.709,0.069,1.065c0.31-0.777,0.617-1.546,0.919-2.301c-0.219-0.265-0.438-0.531-0.659-0.793
		c0.246-0.233,0.488-0.464,0.733-0.697c0.103,0.176,0.207,0.353,0.309,0.529c0.17-0.426,0.338-0.847,0.498-1.246l-2.768,0.737
		C143.458,142.003,143.273,142.244,143.088,142.484z M142.766,141.997c0.001,0.036,0.003,0.069,0.005,0.103
		c0.038-0.045,0.074-0.089,0.111-0.135L142.766,141.997z M142.195,151.433c0.021,0.134,0.04,0.268,0.063,0.4
		c0.029-0.016,0.059-0.035,0.09-0.054c-0.041-0.048-0.064-0.099-0.117-0.146c-0.021-0.018-0.012-0.104,0.006-0.211L142.195,151.433z
		 M141.507,152.313c-0.025,0.615-0.051,1.216-0.232,1.754c0.042,0.045,0.082,0.092,0.122,0.137c0.103,0.112,0.128,0.315,0.188,0.473
		c-0.085,0.144-0.168,0.288-0.252,0.431c-0.137-0.066-0.27-0.13-0.403-0.191c-0.012,0.027-0.023,0.052-0.035,0.079
		c0.045,0.32,0.089,0.647,0.131,0.964c-0.043,0.057-0.084,0.112-0.126,0.17c0.031,0.048,0.06,0.095,0.09,0.142
		c0.192-0.46,0.391-0.931,0.579-1.387c0.3-0.726,0.936-1.519,1.033-2.239c-0.312-0.066-0.63-0.118-0.928-0.217
		C141.614,152.409,141.563,152.35,141.507,152.313z M137.007,128.1c0.601-0.086,1.212-0.176,1.893-0.275
		c0.359-0.583,0.693-1.142,0.992-1.678c-1.659-0.46-3.315-0.92-4.975-1.382c-0.129,0.169-0.258,0.34-0.386,0.51
		c0.24,0.607,0.05,1.442,1.607,1.096c0.819-0.183,1.569,0.381,2.654,0.695c-0.811,0.343-1.267,0.534-1.725,0.729
		C137.048,127.895,137.026,127.999,137.007,128.1z M136.153,129.066c-0.83,0.427-2.115,1.36-2.447,1.204
		c-0.779-0.367-1.866-0.452-2.688-0.75c-0.61,1.074-1.315,2.229-2.168,3.468l6.713-1.792
		C136.554,130.636,136.536,130.195,136.153,129.066z M143.583,125.007c-0.465,0.638-0.82,1.13-1.309,1.803
		c-0.427-0.119-0.86-0.237-1.289-0.357c-0.251,0.457-0.544,0.945-0.838,1.438c0.152,0.401,0.344,0.897,0.545,1.419
		C143.3,127.643,144.239,126.361,143.583,125.007z M140.68,129.32c-0.003,0.007-0.008,0.013-0.011,0.02
		c0.011-0.001,0.023-0.004,0.034-0.006c-0.004-0.008-0.006-0.015-0.01-0.024L140.68,129.32z M147.372,160.215
		c0.002-0.03,0.002-0.053,0.004-0.085l-0.053,0.046C147.341,160.189,147.355,160.2,147.372,160.215z M119.166,135.569l0.144-0.04
		c-0.038-0.003-0.076-0.006-0.115-0.005C119.185,135.539,119.176,135.554,119.166,135.569z M111.789,136.174
		c-0.123,0.103-0.629,0.06-0.984-0.05c-0.403,0.651-0.844,1.33-1.326,2.029l6.474-1.726c-0.108-0.038-0.23-0.066-0.391-0.064
		C114.267,136.395,113.865,134.435,111.789,136.174z M122.607,136.492c0.815-0.062,1.282,0.224,1.693,0.557
		c0.582-0.668,1.13-1.327,1.646-1.976l-3.763,1.003C122.301,136.321,122.426,136.504,122.607,136.492z M127.2,133.429
		c1.194-1.64,2.138-3.158,2.909-4.521c-0.194-0.266-0.295-0.608-0.234-1.089c-1.251,0.023-2.26,0.041-3.322,0.06
		c-0.217,0.277-0.493,0.631-0.838,1.069c-0.405-0.179-0.833-0.329-1.256-0.477c-0.168,0.255-0.323,0.49-0.498,0.752
		c0.069-0.308,0.14-0.578,0.212-0.853c-0.28-0.101-0.564-0.196-0.823-0.304c-0.173,0.41-0.378,0.856-0.61,1.346
		c0.343,0.051,0.654,0.127,0.853,0.299c0.338,0.294,0.125,1.055,0.17,1.849c-0.552-0.515-1.005-0.936-1.423-1.324
		c-0.44,0.872-0.975,1.843-1.604,2.886c1.976-0.093,3.217,0.232,3.772,1.025l1.218-0.326c-0.011-0.044-0.015-0.087-0.027-0.133
		c0.138,0.003,0.28,0.015,0.42,0.03L127.2,133.429z M121.961,114.76c0.854,0.382,1.669,0.744,2.493,1.11
		c0.036-0.332,0.073-0.67,0.103-0.973c-0.39-0.271-0.791-0.552-1.168-0.814l-2.583,0.686c-0.035,0.348-0.077,0.76-0.122,1.187
		C121.102,115.535,121.482,115.037,121.961,114.76z M104.651,141.851c-0.2-0.402-0.351-0.705-0.483-0.972l-2.687,0.715
		L104.651,141.851z M64.316,148.874c0.515,0.314,1.057,0.599,1.591,0.893l3.177-0.847c4.31-5.92,5.622-10.475,5.638-10.536
		c0.12-0.615,0.238-1.327,0.353-2.074c-0.296-0.02-0.595-0.029-0.891-0.05c-0.238-0.016-0.348-0.278-0.554-0.385
		c-0.711-0.37-1.361-0.839-2.171-1.05c-0.131,0.195-0.318,0.343-0.523,0.368c-0.209,0.03-0.344-0.093-0.427-0.262
		c-0.396,0.154-0.833,0.372-1.219,0.512c0.035,0.162,0.072,0.326,0.105,0.489c0.422-0.167,0.847-0.335,0.986-0.389
		c0.172,0.628,0.325,1.176,0.486,1.766c0.663-0.638,1.033-0.989,1.584-1.517c-0.063,0.892-0.326,1.584-0.077,1.936
		c0.262,0.376,1.01,0.43,1.728,0.689c-1.062,0.397-1.797,0.673-2.507,0.938c0.085,0.494,0.154,0.902,0.285,1.667
		c-0.843-0.357-1.284-0.547-1.824-0.772c-0.942,1.148-1.913,1.675-3.13,0.792c0.884-0.46,1.563-0.815,2.244-1.17
		c0.015-0.134,0.032-0.268,0.049-0.402c-0.48,0.108-0.992,0.123-1.427,0.343c-0.66,0.333-1.135,0.605-1.431,0.243
		c-0.055,0.312-0.109,0.631-0.165,0.916c-0.061,0.23-0.889,3.032-3.223,7.04C63.428,148.315,63.868,148.602,64.316,148.874z
		 M84.846,125.667l0.024-0.023c0,0.01-0.003,0.025-0.005,0.037c0.284,0.181,0.558,0.371,0.839,0.553
		c0.089-0.816,0.165-1.566,0.225-2.168l-3.868,1.031c-0.001,0.012-0.003,0.027-0.004,0.039c1.248-0.49,2.19-0.358,2.764,0.506
		c0.015,0.001,0.031,0.001,0.049,0C84.87,125.644,84.846,125.667,84.846,125.667z M59.397,151.5
		c0.857-1.175,1.564-2.275,2.197-3.318c-0.193-0.145-0.395-0.285-0.574-0.444c-0.15-0.13,0.041-0.547,0.09-0.969
		c0.341,0.225,0.655,0.436,0.959,0.639c1.659-2.86,2.475-4.993,2.792-5.913c-0.991,0.351-1.798,0.656-2.558,0.752
		c-0.814,0.106-1.614-0.135-2.268-0.408c-0.746-0.312-1.322-0.827-2.088-1.334c-0.391,0.303-0.72,0.454-1.008,0.494
		c-0.139,0.92-0.282,1.798-0.431,2.555c-0.077,0.288-1.287,4.488-5.145,10.087L59.397,151.5z M59.537,150.628
		c-0.522,0.427-1.051,1.088-1.604,1.262c-0.865,0.271-1.743,0.21-2.684,0.298c0.164-0.437,0.372-0.986,0.529-1.397
		C56.991,150.74,58.064,150.693,59.537,150.628z M83.169,129.059c1.323-0.672,2.162-1.259,1.642-2.316
		c-0.131-0.269,0.018-0.697,0.054-1.061c-0.006-0.005-0.013-0.009-0.019-0.014c-0.007-0.01-0.019-0.012-0.026-0.024
		c-0.94,0.009-1.878,0.015-2.816,0.02c-0.079,0.769-0.173,1.668-0.285,2.683c0.628-0.248,1.445-0.308,2-0.7
		C83.555,128.067,83.392,128.484,83.169,129.059z M99.208,134.955c-1.331-0.541-2.658-1.084-3.987-1.624
		c-0.035,0.122-0.109,0.36-0.246,0.753c0.369,0.178,0.736,0.358,1.099,0.543c-0.564,0.294-0.855,0.229-1.173,0.239
		c-0.072,0.002-0.149,0.012-0.223,0.016c-0.255,0.661-0.616,1.498-1.089,2.479c0.105,0.295,0.225,0.621,0.363,1.026
		c-0.287-0.079-0.54-0.146-0.771-0.212c-0.761,1.488-1.751,3.221-3.072,5.139l8.035-2.142c0.232-0.32,0.423-0.618,0.638-0.929
		c-0.878-0.179-1.756-0.359-2.634-0.538c0.145-0.225,0.29-0.449,0.437-0.674c1.371-0.546,2.025-0.016,2.757,0.397
		c0.579-0.872,1.102-1.707,1.549-2.486c0.143-0.661,0.268-1.233,0.386-1.783c0.129-0.074,0.255-0.143,0.386-0.218
		c0.052,0.103,0.101,0.209,0.153,0.312c0.243-0.472,0.446-0.896,0.639-1.307c-0.137,0.006-0.258,0.011-0.398,0.019
		c1.278-1.395,1.521-3.118,0.549-3.206c-0.767-0.065-1.867,0.543-3.196,0.974c-0.702-0.321-1.82-0.834-2.936-1.344
		c0.104-0.163,0.205-0.321,0.312-0.481c0.755,0.1,1.477,0.367,2.278,0.259c1.149-0.158,1.687-0.781,1.674-1.462
		c-0.753,0.219-1.521,0.443-2.289,0.664c0.003-0.121,0.006-0.241,0.008-0.365c0.638-0.546,1.276-1.091,1.899-1.626
		c1.288,0.332,2.553,0.658,3.808,1.002c0.038-0.251,0.077-0.497,0.113-0.756c-0.135-0.022-0.273-0.056-0.41-0.11
		c-0.898-0.358-1.752-0.786-2.725-1.033c-0.129-0.031-0.29-0.014-0.436-0.021c-0.01,0.078-0.018,0.154-0.028,0.23
		c-0.047,0.372-0.351,0.711-0.681,0.754c-0.306,0.044-0.522-0.18-0.514-0.512c0-0.026,0.001-0.053,0.005-0.079
		c0.017-0.125,0.03-0.248,0.047-0.374c-0.131,0.011-0.263,0.026-0.387,0.029c-0.188,0.027-0.372,0.05-0.561,0.077
		c0.165-0.505,0.588-0.84,1.073-1.133c0.074-0.61,0.142-1.2,0.205-1.774c-0.786,0.336-1.288,0.551-1.707,0.729
		c-0.479-0.665-0.851-1.177-1.221-1.692c-0.094,0.044-0.188,0.089-0.282,0.134c-0.072,0.681-0.151,1.419-0.242,2.211
		c0.431,0.053,0.864,0.103,1.296,0.152l-0.065,0.283c-0.429,0.062-0.864,0.128-1.303,0.194c-0.248,2.14-0.552,4.47-0.881,6.389
		c1.631,0.547,2.832,1.538,4.094,2.458C99.432,134.68,99.322,134.816,99.208,134.955z M60.002,140.807
		c0.197-0.04,0.396-0.082,0.591-0.121c0.157-0.578,0.313-1.158,0.508-1.884c0.567,0.368,0.993,0.646,1.472,0.955
		c0.444-0.311,0.863-0.601,1.284-0.893c-0.002-0.002-0.003-0.003-0.004-0.006c-2.173-0.263-4.354-0.508-6.507-0.811
		c-0.062,0.483-0.124,0.958-0.19,1.435c0.857-0.079,1.665-0.154,2.394-0.221C59.736,139.892,59.869,140.352,60.002,140.807z
		 M87.847,125.606c2.447-0.309,0.7,1.084,0.216,2.082c0.673-0.062,1.28-0.119,1.971-0.182c0.213-1.803,0.388-3.489,0.505-4.668
		l-2.466,0.656c0.03,0.202,0.043,0.435,0.091,0.609c-0.363,0.057-0.744,0.16-1.078,0.158c-0.071,0.71-0.159,1.546-0.261,2.478
		c0.274,0.029,0.585,0.013,0.875,0.026C87.744,126.413,87.789,126.062,87.847,125.606z M88.035,133.656
		c0.996-0.725,1.992-1.449,2.988-2.172c0.003,0.006,0.007,0.01,0.011,0.016c0.393-0.296,0.787-0.588,1.18-0.882
		c-0.397,0.29-0.793,0.576-1.191,0.866c-0.294-0.433-0.588-0.866-0.88-1.301c0.077-0.058,0.154-0.116,0.232-0.175
		c-0.023,0.005-0.044,0.021-0.069,0.025c-0.243,0.033-0.395-0.131-0.456-0.353c-1.217,0.192-2.387,0.375-3.437,0.541
		c-0.141,1.119-0.293,2.232-0.454,3.278C87.333,132.348,87.272,134.184,88.035,133.656z M22.619,142.085
		c-0.942-0.126-1.946-0.089-3.133,0.422c-0.077,0.032-0.154,0.073-0.229,0.108c-0.032,0.302-0.065,0.623-0.101,0.966
		c1.064-0.313,2.236-0.492,3.361-0.535C22.551,142.715,22.586,142.386,22.619,142.085z M18.791,153.836
		c-0.143,0.215-0.285,0.429-0.426,0.646c-0.242-0.067-0.485-0.131-0.728-0.194c-0.38,1.186-1.735,4.915-5.019,9.683l8.034-2.142
		c2.396-3.288,3.84-6.119,4.675-8.027c-0.439,0.077-0.887,0.183-1.33,0.27c0.031-0.17,0.063-0.344,0.093-0.515
		c0.463-0.033,0.976-0.184,1.484-0.321c0.498-1.2,0.71-1.918,0.717-1.942c0.456-2.341,0.893-5.878,1.207-8.734
		c-0.229-0.305-0.45-0.605-0.74-0.995c-0.106,0.72-0.148,1.023-0.219,1.513c-0.717-0.225-1.223-0.427-1.778-0.549
		c-0.332-0.072-0.663-0.154-0.993-0.229c-0.025,0.24-0.053,0.493-0.079,0.749c1.571,0.082,2.902,0.462,3.469,1.152
		c-1.456,0.615-2.527,0.408-3.613,0.144c-0.11,0.971-0.227,1.981-0.359,3.004c-0.047,0.372-0.353,0.71-0.684,0.755
		c-0.302,0.04-0.52-0.185-0.512-0.513c0-0.025,0.002-0.052,0.006-0.083c0.149-1.164,0.284-2.331,0.405-3.412
		c-0.896-0.166-1.885-0.209-3.165,0.244c-0.072,0.054-0.113,0.078-0.174,0.12c-0.289,2.662-0.7,6.042-1.15,8.589
		C18.289,153.17,18.602,153.402,18.791,153.836z M21.507,148.742c-0.242,1.589-0.242,1.589-2.087,1.65
		c-0.066-0.15-0.133-0.3-0.197-0.449C19.941,149.565,20.66,149.186,21.507,148.742z M108.446,129.531
		c1.689-0.955,3.025-0.661,3.813,0.612c-0.442-0.014-1.063-0.112-1.128-0.025c-1.509,2.023-1.664,0.444-1.901,0.274
		c-1.532,0.205-2.85,0.658-3.695,0.423c-0.214-0.06-0.402-0.162-0.577-0.282c-0.007,0.037-0.013,0.078-0.02,0.111
		c-0.028,0.108-0.22,0.775-0.653,1.862c0.002,0.01,0.006,0.019,0.01,0.027c0.815,0.22,1.669,0.45,2.526,0.679
		c-0.101,0.183-0.2,0.364-0.3,0.546c-0.916,0.045-1.855,0.088-2.828,0.132c-0.341,0.755-0.77,1.622-1.286,2.577
		c0.167,0.344,0.336,0.684,0.503,1.029c-0.105,0.127-0.212,0.252-0.318,0.375c-0.283-0.089-0.562-0.179-0.829-0.267
		c-0.403,0.695-0.855,1.425-1.353,2.185c0.128,0.012,0.253,0.029,0.397,0.015c-0.16,0.25-0.322,0.503-0.484,0.754
		c-0.122-0.025-0.245-0.049-0.369-0.073c-0.057,0.084-0.103,0.162-0.162,0.249l8.036-2.141c0.299-0.411,0.551-0.798,0.819-1.193
		c-1.031-0.25-1.93-0.47-3.031-0.737c2.048-1.109,3.081-1.145,3.545-0.008c3.241-4.943,4.289-8.545,4.303-8.597
		c0.247-1.262,0.488-2.877,0.708-4.543c-0.124,0.012-0.25,0.028-0.405,0.051c-1.396,0.208-1.948-0.247-2.146-1.29
		c0.931-0.518,2.137-0.978,2.817-0.91c0.02-0.169,0.042-0.34,0.06-0.509c-1.014-0.448-1.863-0.823-2.701-1.192
		c-0.076-0.247-0.151-0.493-0.226-0.741c0.667-0.335,1.336-0.778,2-0.958c0.353-0.096,0.906,0.164,1.007,0.44
		c0.058,0.159,0.101,0.326,0.143,0.499c0.09-0.833,0.166-1.572,0.231-2.216c-0.465,0.239-1.228,0.492-2.428,0.882
		c-0.108-0.161-0.196-0.344-0.296-0.512l-0.739,0.196c0.046,0.03,0.097,0.057,0.12,0.1c0.197,0.384,0.037,0.97,0.032,1.469
		c-0.224,0.008-0.45,0.018-0.674,0.026c-0.129,1.245-0.297,2.75-0.485,4.293c0.762,0.449,1.448,0.812,2.032,1.253
		c0.278,0.208,0.333,0.62,0.489,0.94c-0.471,0.055-1.032,0.239-1.397,0.139c-0.634-0.168-1.245-0.384-1.892-0.618
		c-0.01,0.001-0.022,0.011-0.033,0.011c-0.17,0.021-0.299-0.051-0.39-0.166c-0.297-0.108-0.602-0.219-0.925-0.332
		c0.338-0.233,0.616-0.423,0.871-0.597c0.215-1.738,0.405-3.453,0.547-4.831c-0.445,0.241-1.091,0.672-1.2,0.6
		c-0.487-0.342-0.911-0.745-1.318-1.159l-0.755,0.2c-0.157,1.588-0.427,4.177-0.757,6.75c0.676,0.064,1.527,0.013,0.916,0.988
		c-0.28,0.448-0.704,0.863-1.199,1.106c-0.068,0.465-0.137,0.91-0.206,1.347c0.164,0.148,0.292,0.348,0.428,0.525
		C106.275,130.066,106.951,130.378,108.446,129.531z M110.712,128.323c-0.93-0.752-1.71-1.381-2.49-2.011
		C111.086,127.138,111.086,127.138,110.712,128.323z M8.19,155.83l0.003-0.118c-0.022,0.128-0.046,0.253-0.07,0.38
		c0.271-0.068,0.546-0.138,0.813-0.205c0.003,0.087,0.006,0.173,0.011,0.26c-0.297,0.149-0.597,0.301-0.947,0.478
		c-0.059,0.191-0.164,0.504-0.319,0.926c0.867,0.399,1.579,0.775,2.433,0.858c1.571,0.152,1.771,0.484,0.326,2.032
		c-0.767-0.91-1.938-1.487-3.206-1.755c-0.751,1.817-2.078,4.56-4.311,7.802l0.062-0.016c-0.018,0.026-0.035,0.054-0.052,0.08
		l7.8-2.079c-1.019-0.885-2.044-1.769-3.067-2.65c0.134-0.132,0.263-0.258,0.396-0.387c1.127,0.356,2.254,0.713,3.551,1.12
		c-0.514,0.197-0.91,0.349-1.472,0.565c0.432,0.323,0.786,0.59,1.129,0.849c3.764-5.292,5.111-9.367,5.295-9.968
		c-0.589-0.156-1.175-0.314-1.764-0.472c0.086-0.131,0.175-0.26,0.258-0.392c0.569-0.062,1.163-0.169,1.715-0.204
		c0.431-2.501,0.831-5.86,1.112-8.476c-0.101-0.082-0.189-0.148-0.327-0.265c0.119-0.061,0.247-0.113,0.374-0.169
		c0.03-0.296,0.062-0.589,0.091-0.859c-0.141,0.059-0.281,0.129-0.421,0.176c-0.383,0.125-0.781,0.036-1.175,0.047
		c-0.079,0.424-0.224,0.868-0.219,1.267c0.006,0.416,0.155,0.788,0.254,1.24c-0.992,0.229-1.883,0.436-2.556,0.59
		c-0.121,1.093-0.257,2.266-0.409,3.443c-0.047,0.374-0.353,0.713-0.68,0.755c-0.306,0.044-0.525-0.18-0.516-0.513
		c0-0.024,0.002-0.052,0.004-0.077c0.318-2.487,0.585-5.012,0.741-6.6l-3.402,0.904c-0.155,1.571-0.42,4.105-0.746,6.643
		c0.352-0.373,0.702-0.745,1.054-1.12c-0.227,0.902-0.689,1.725-1.219,2.378C8.564,153.553,8.381,154.773,8.19,155.83z
		 M57.901,136.743c0.65,0.234,1.277,0.456,2.032,0.727c0.117-0.975,0.22-1.851,0.342-2.888c0.193-0.129,0.495-0.329,0.842-0.561
		c0.043-0.386,0.083-0.747,0.122-1.108c-0.404-0.615-0.808-1.23-1.205-1.839c-0.185,0.107-0.373,0.215-0.559,0.324
		c0.138,0.371,0.277,0.741,0.396,1.06c-0.675,0.308-1.362,0.619-1.983,0.899c-0.036,0.344-0.075,0.693-0.114,1.066
		c0.554,0.524,1.114,1.052,1.744,1.648C58.749,136.391,58.33,136.565,57.901,136.743z M3.843,155.734
		c0.951,0.375,1.689,0.665,2.225,0.877c0.307-0.077,0.579-0.147,0.862-0.217c0.165-0.853,0.327-1.862,0.481-2.936
		c-0.364,0.197-0.707,0.283-0.978,0.205c0.37-0.393,0.745-0.791,1.115-1.185c0.186-1.367,0.357-2.778,0.507-4.097
		c-1.258,0.723-2.258,1.299-3.36,1.934c0.243-0.902,0.432-1.605,0.643-2.388c0.914,0.031,1.741,0.057,2.757,0.093
		c0.141-1.267,0.261-2.43,0.348-3.299l-0.017,0.004c0.002-0.021,0.003-0.049,0.007-0.071l-3.871,1.034
		c-0.16,1.596-0.429,4.197-0.758,6.76c-0.046,0.369-0.352,0.712-0.682,0.755c-0.228,0.031-0.407-0.085-0.478-0.286
		c-0.016-0.052-0.026-0.105-0.027-0.164c0.001-0.026,0.001-0.051,0.007-0.079c0.319-2.488,0.581-5.009,0.74-6.603l-0.016,0.006
		c0.002-0.022,0.003-0.047,0.006-0.067L0,146.906v1.367c0.584-0.005,1.048,0.015,1.182,0.235c0.596,0.985-0.876,2.813,0.501,3.59
		c-0.353,0.305-0.695,0.758-1.064,0.881c-0.204,0.068-0.41,0.055-0.619,0.032v1.628c0.54,0.328,1.068,0.661,1.574,0.981
		c-0.605,0.371-1.116,0.683-1.574,0.963v1.395c1.168-0.279,2.292-0.548,3.461-0.827C3.533,156.88,3.635,156.5,3.843,155.734z
		 M1.312,154.361c2.904-0.691,2.904-0.691,3.316-0.373c-0.426,0.359-0.88,0.737-1.552,1.3
		C2.649,155.065,2.049,154.749,1.312,154.361z M45.422,149.709c0.872-0.424,1.413-0.688,2.037-0.99
		c0.473,0.346,0.947,0.693,1.755,1.283c-1.464-0.033-2.51-0.059-3.887-0.09c-0.8,1.705-1.96,3.861-3.648,6.312l3.886-1.035
		c-0.059-0.06-0.124-0.114-0.173-0.181c0.224,0.018,0.436,0.035,0.649,0.054l2.499-0.667c-0.026-0.104-0.054-0.213-0.08-0.316
		c0.149-0.113,0.296-0.233,0.449-0.352c0.149,0.147,0.303,0.298,0.458,0.448l0.347-0.092c4.308-5.916,5.62-10.474,5.638-10.534
		c0.182-0.937,0.361-2.075,0.531-3.278c-0.087-0.188-0.169-0.396-0.238-0.648c0.12-0.011,0.216-0.019,0.334-0.032
		c0.155-1.144,0.301-2.322,0.43-3.45c-0.028-0.048-0.045-0.106-0.09-0.14c-0.958-0.772-2.154-1.238-3.482-1.521
		c-0.021,0.203-0.044,0.423-0.068,0.641c0.25,0.059,0.502,0.115,0.752,0.175c0.295,0.067,0.646,0.138,0.786,0.332
		c0.476,0.661,0.869,1.378,1.183,1.891c-0.377,0.832-0.684,1.509-0.989,2.185c-0.124,0.077-0.246,0.154-0.368,0.231
		c-0.104-0.467-0.209-0.934-0.348-1.562c-0.263,0.026-0.741,0.071-1.348,0.127c0.376-0.681,0.673-1.221,0.874-1.588
		c-0.246-0.068-0.478-0.133-0.717-0.199c-0.106,0.936-0.221,1.909-0.346,2.891c-0.047,0.373-0.352,0.712-0.681,0.755
		c-0.304,0.043-0.523-0.181-0.515-0.512c-0.001-0.025,0.002-0.052,0.005-0.079c0.147-1.15,0.28-2.299,0.4-3.369
		c-0.637-0.177-1.27-0.354-1.921-0.536c-0.333,0.357-0.707,0.755-1.196,1.278c-0.085-0.038-0.168-0.074-0.253-0.112
		c-0.319,2.915-0.772,6.605-1.264,9.112C46.779,146.295,46.378,147.638,45.422,149.709z M27.929,148.433
		c-0.154,1.039-0.314,2.023-0.48,2.866c-0.028,0.105-0.208,0.721-0.594,1.707c0.561-0.011,1.046,0.172,1.346,0.812
		c-0.571-0.03-1.106-0.074-1.644-0.091c-0.092,0.219-0.174,0.422-0.283,0.667c0.535-0.169,1.002-0.073,1.219,0.906
		c-0.619,0.056-1.178,0.109-1.721,0.159c-0.794,1.641-1.905,3.659-3.469,5.93l8.035-2.141c1.468-2.014,2.564-3.849,3.405-5.425
		c-0.515,0.086-1.013,0.173-1.542,0.261c0.009-0.488,0.021-1.043,0.034-1.689c0.676,0.311,1.328,0.509,1.936,0.611
		c1.304-2.589,1.796-4.257,1.805-4.293c0.416-2.128,0.814-5.246,1.119-7.944c-0.415,0.036-0.897,0.194-1.484,0.538
		c-0.339,0.198-1.156-0.421-1.708-0.713c-0.197-0.107-0.337-0.299-0.494-0.449c-0.149,1.39-0.329,3-0.537,4.625
		c-0.048,0.372-0.353,0.71-0.681,0.753c-0.305,0.043-0.523-0.181-0.516-0.511c0-0.024,0.002-0.055,0.006-0.079
		c0.228-1.771,0.424-3.547,0.577-5.005c-0.68-0.011-1.385,0.01-2.118,0.018c0.014,0.699,1.335,1.343-0.469,2.453
		c-0.212-0.56-0.376-0.995-0.603-1.588c-0.101,0.227-0.182,0.411-0.273,0.615c-0.194,1.824-0.451,4.045-0.744,6.142
		c0.075,0.01,0.157,0.006,0.231,0.018c0.661,0.112,1.303,0.254,1.969,0.356c1.441,0.223,2.896,0.425,4.344,0.639
		c-0.133,0.196-0.267,0.391-0.4,0.584C32.103,148.924,30.006,148.697,27.929,148.433z M37.85,151.638
		c0.925-0.084,1.849-0.17,2.777-0.258c-0.262,0.671-0.485,1.246-0.531,1.361c-1.695,0.288-3.336,0.568-4.992,0.849
		c-0.764,1.504-1.77,3.267-3.112,5.215l8.035-2.14c4.311-5.917,5.621-10.476,5.636-10.535c0.506-2.584,0.982-6.619,1.301-9.592
		c-0.822-0.359-1.646-0.718-2.511-1.099c-0.132,0.718-0.243,1.326-0.382,2.101c-0.257-0.21-0.332-0.338-0.468-0.374
		c-0.15-0.037-0.303-0.067-0.456-0.102c-0.154,1.485-0.356,3.304-0.588,5.119c-0.048,0.374-0.354,0.712-0.681,0.755
		c-0.307,0.045-0.525-0.18-0.516-0.512c0.001-0.026,0.003-0.054,0.007-0.08c0.185-1.448,0.348-2.888,0.487-4.171
		c-0.08,0.024-0.156,0.046-0.229,0.07c-0.296,0.096-0.616,0.171-0.877,0.332c-1.506,0.93-1.674,1.037-2.25,0.104
		c-0.055,0.511-0.114,1.048-0.179,1.616c0.36,0.305,0.716,0.611,1.074,0.917c-0.149,0.153-0.301,0.308-0.453,0.464
		c-0.22-0.253-0.452-0.465-0.707-0.629c-0.302,2.617-0.689,5.564-1.1,7.672c-0.049,0.174-0.527,1.82-1.762,4.337
		C36.624,152.984,37.553,152.449,37.85,151.638z M39.637,149.675c-0.65-0.583-1.294-1.161-1.938-1.737
		C40.005,148.265,40.51,148.804,39.637,149.675z M128.597,124.073c-0.323,0.275-0.677,0.581-1.321,1.132
		c0.998-0.199,1.688-0.428,2.293-0.435c0.697-0.004,1.539-0.003,1.937,0.327c0.125,0.107,0.238,0.227,0.353,0.341
		c0.186-0.426,0.345-0.801,0.472-1.125c-0.242-0.442-0.471-0.891-0.715-1.332c0.462-0.004,0.801,0.133,1.091,0.317
		c0.076-0.23,0.128-0.395,0.131-0.404c0.115-0.58,0.225-1.252,0.334-1.954c-1.559,0.003-3.084,0.006-4.581-0.004
		c-0.146-0.001-0.278-0.126-0.34-0.239c-0.645-1.141-1.553-2.046-2.878-2.56c-0.173,1.482-0.371,3.042-0.584,4.496
		C126.517,122.449,128.118,122.395,128.597,124.073z M150.947,143.856c-0.006,0.014-0.009,0.026-0.016,0.04
		c0.009-0.004,0.02-0.008,0.028-0.01l0-0.016C150.953,143.865,150.95,143.861,150.947,143.856z M150.609,124.175
		c-0.036-0.003-0.071-0.006-0.106-0.009c-0.003,0.007-0.01,0.016-0.015,0.022c0.012,0.035,0.027,0.071,0.04,0.105
		C150.554,124.254,150.583,124.214,150.609,124.175z M150.004,125.021c-0.006,0.007-0.013,0.019-0.018,0.026
		c0.009-0.008,0.02-0.017,0.028-0.028C150.01,125.021,150.006,125.018,150.004,125.021z M150.902,133.286
		c-0.729,0.101-1.566-0.226-2.241,0.289c-0.031,0.108-0.063,0.216-0.096,0.326c0-0.075-0.001-0.153-0.002-0.228
		c-0.192,0.175-0.37,0.413-0.526,0.775c-0.036,0.082-0.38,0.208-0.642,0.252c-0.594,1.895-1.264,3.568-3.043,2.074
		c-0.163,0.249-0.318,0.465-0.464,0.647c-0.123,0.373-0.26,0.777-0.416,0.88c-0.008,0.005-0.018,0.009-0.026,0.015l4.823-1.286
		c0.238-0.655,0.479-1.187,0.723-1.617c-0.327-0.053-0.655-0.106-0.997-0.161c0.815-0.431,1.647-1.107,2.363-1.211
		c0.351-0.049,0.697-0.073,1.044-0.115c-0.001-0.301-0.003-0.526-0.003-0.708C151.234,133.24,151.066,133.264,150.902,133.286z
		 M144.178,118.302c-0.048-0.011-0.097-0.024-0.145-0.038c-0.016,0.111-0.034,0.225-0.053,0.335c0.055,0.007,0.108,0.014,0.16,0.019
		C144.156,118.513,144.166,118.41,144.178,118.302z M149.759,155.044c0.041,0.005,0.082,0.011,0.123,0.017
		c-0.022-0.036-0.04-0.071-0.062-0.109C149.8,154.982,149.778,155.014,149.759,155.044z M109.909,117.676l-0.343,0.09
		c0.107,0.056,0.212,0.113,0.318,0.168C109.892,117.854,109.902,117.752,109.909,117.676z M148.856,147.334
		c0.473-1.481,0.924-2.883,1.372-4.283C148.619,144.576,148.113,146.061,148.856,147.334z M150.228,143.05
		c0.006-0.009,0.016-0.018,0.025-0.028l0.005-0.018c-0.003-0.005-0.008-0.009-0.012-0.013L150.228,143.05z M119.222,118.629
		c0.049-0.439,0.096-0.855,0.138-1.261c-0.322-0.072-0.691-0.214-1.008-0.271c0.058-0.2,0.114-0.398,0.169-0.595
		c0.352,0.145,0.645,0.17,0.917,0.142c0.061-0.568,0.113-1.094,0.157-1.538c-0.023,0.004-0.047,0.006-0.07,0.008l-3.33,0.887
		c-0.022,0.231-0.051,0.512-0.078,0.78c0.411-0.29,0.882-0.625,1.608-1.143C116.8,118.016,117.858,118.447,119.222,118.629z
		 M147.082,122.032c0.145-0.166,0.289-0.328,0.436-0.497c-0.026-0.069-0.044-0.139-0.068-0.209
		c-1.019-0.451-2.165-0.748-3.973-0.067C144.223,122.52,145.699,122.231,147.082,122.032z M149.719,155.076
		c0.009-0.002,0.018-0.008,0.024-0.009l0.016-0.024l-0.022-0.001C149.733,155.053,149.727,155.063,149.719,155.076z M115.135,124.98
		c-0.164,1.122-0.336,2.184-0.511,3.085c-0.063,0.227-0.85,2.901-3.058,6.757c0.036,0.07,0.081,0.158,0.103,0.196
		c1.776-0.411,3.299-0.763,4.719-1.092c0.212,0.829,0.081,1.87,0.634,2.138c0.035,0.02,0.062,0.035,0.095,0.052l0.395-0.105
		c0.139-0.191,0.25-0.367,0.382-0.554c-0.148-0.008-0.298-0.016-0.446-0.024c0.438-0.371,0.793-0.676,1.121-0.957
		c0.206-0.306,0.413-0.61,0.602-0.905c-0.344,0.056-0.684,0.108-1.027,0.165c0.356-0.541,0.715-1.079,1.134-1.712
		c-0.19-0.287-0.423-0.632-0.655-0.982c0.182-0.149,0.366-0.3,0.551-0.451c0.306,0.315,0.795,0.556,0.87,0.96
		c0.039,0.206,0.005,0.437-0.051,0.68c1.136-1.924,1.91-3.548,2.402-4.722c-0.116-0.091-0.253-0.169-0.343-0.28
		c-0.942-1.182-2.259-0.962-3.895-0.496c-0.087-0.462-0.166-0.892-0.221-1.173c1.715,0.007,3.36,0.012,5.137,0.02
		c-0.131-0.415-0.232-0.743-0.343-1.104c0.235-0.075,0.438-0.142,0.634-0.204c0.049-0.285,0.096-0.589,0.141-0.892
		c-0.17-0.199-0.332-0.389-0.494-0.578c0.196-0.01,0.394-0.03,0.594-0.049c0.234-1.6,0.453-3.362,0.641-4.994
		c-1.149-0.368-1.89-1.521-3.676-0.739c-0.06,0.553-0.122,1.13-0.192,1.742c0.513,0.065,1.008,0.153,1.4,0.354
		c-0.554,0.078-1.024,0.133-1.458,0.175c-0.087,0.737-0.176,1.486-0.271,2.239c-0.051,0.375-0.355,0.713-0.683,0.756
		c-0.304,0.042-0.523-0.184-0.516-0.512c0.002-0.028,0.003-0.051,0.008-0.081c0.101-0.794,0.194-1.578,0.283-2.346
		c-1.343-0.015-2.124-0.399-3.144-1.397c-0.148,1.387-0.332,3.022-0.544,4.683c0.4,0.273,0.942,0.361,1.217,0.755
		c0.085-0.312,0.169-0.624,0.231-0.861c0.915,0.01,1.722,0.019,2.527,0.028c-0.151,0.568-0.278,1.037-0.356,1.331
		C117.754,124.253,116.525,124.594,115.135,124.98z M134.899,124.191c1.61-0.312,3.143-0.02,4.709,0.014
		c0.465-0.027,1.03-0.353,1.594-0.59c0.166-0.355,0.304-0.668,0.436-0.973c-0.343-0.004-0.642,0.067-0.807,0.25
		c-1.195,1.312-1.622,0.675-2.331,0.225c0.332-0.231,0.611-0.427,0.956-0.67c-0.317-0.204-0.598-0.381-0.876-0.561
		c0.08-0.122,0.158-0.242,0.238-0.364c1.002,0.069,2.014,0.136,3.196,0.219c0.342-0.87,0.506-1.41,0.51-1.429
		c0.017-0.089,0.035-0.196,0.052-0.289c-0.341-0.021-0.807,0.052-1.171,0.151c-1.156,0.309-2.323,0.84-3.466,1.085
		c-0.537,0.114-1.13-0.124-1.494-0.395c-0.158-0.116,0.194-0.704,0.374-1.261c-0.292-0.07-0.754-0.175-1.395-0.324
		c-0.057,0.679-0.093,1.093-0.14,1.659c-0.326,0-0.628,0-0.949,0.002c-0.111,0.698-0.224,1.371-0.338,1.961
		c-0.021,0.08-0.15,0.508-0.39,1.165C133.872,124.242,134.219,124.322,134.899,124.191z M128.951,115.656
		c0.122-1.096,0.224-2.08,0.306-2.882c-0.533,0.051-1.067,0.107-1.603,0.17l-1.771,0.471c-0.005,0.052-0.012,0.117-0.018,0.169
		c1.049,0.744,1.983,1.405,3.051,2.161C128.931,115.709,128.939,115.688,128.951,115.656z M141.494,117.574
		c-0.295-0.078-0.587-0.162-0.877-0.246c-0.168,0.169-0.333,0.337-0.501,0.506c-0.077-0.118-0.153-0.236-0.228-0.355
		c0.061-0.098,0.121-0.204,0.182-0.306c-0.274-0.082-0.561-0.145-0.829-0.232c-0.03-0.011-0.044-0.043-0.068-0.064
		c-0.122,0.13-0.276,0.222-0.434,0.243c-0.304,0.043-0.521-0.182-0.514-0.512c0.002-0.028,0.001-0.053,0.007-0.082
		c0.058-0.449,0.111-0.897,0.164-1.345c-0.537,0.83-1.079,1.66-1.605,2.473c1.493,0.194,2.883,0.377,4.247,0.558
		C141.185,118.003,141.339,117.788,141.494,117.574z M72.257,133.879c0.418,1.075,1.856,1.146,3.108,0.42
		c0.056-0.406,0.107-0.81,0.159-1.222c-0.868-0.095-1.667-0.161-2.384-0.32c-0.475-0.107-0.906-0.088-1.315-0.011
		c-0.023,0.194-0.048,0.394-0.072,0.59C71.958,133.379,72.128,133.544,72.257,133.879z M127.76,158.934
		c-0.444,0.599-0.876,1.353-1.312,1.914c0.433-0.073,0.696,0.161,0.524,1.203c0.522,0.328,0.95,0.594,1.361,0.851
		c0.352-0.544,0.768-1.049,1.18-1.376c-0.327-0.483-0.707-0.954-0.425-1.918c-0.592,0.725-0.837,1.025-1.296,1.586
		c0.145-0.683,0.12-1.136,0.309-1.358c0.395-0.463,0.877-0.838,1.335-1.238c-0.463-0.625-1.032-1.282-1.664-1.945
		c-0.138,0.235-0.282,0.477-0.424,0.717c0.234,0.267,0.466,0.537,0.724,0.836c-0.47,0.286-0.955,0.756-1.163,0.672
		c-0.122-0.049-0.237-0.113-0.356-0.166c-0.188,0.316-0.369,0.622-0.568,0.954C126.797,159.329,127.279,159.131,127.76,158.934z
		 M126.745,167.968c-0.011-0.109,0.168-0.437,0.381-0.759c-0.037-0.028-0.076-0.047-0.111-0.075c0.463-0.8,0.864-1.49,1.37-2.36
		c-0.261,0.165-0.575,0.275-0.922,0.349c-0.049,0.263-0.107,0.503-0.212,0.565c-1.007,0.587-2.052,1.053-3.087,1.527
		c-0.067,0.029-0.285-0.275-0.246-0.365c0.116-0.262,0.294-0.554,0.506-0.73c0.681-0.57,1.389-1.09,2.123-1.658
		c0.1,0.012,0.41,0.047,0.855,0.096c0.183-0.252,0.373-0.512,0.547-0.752c-1.179-0.696-2.357-1.392-3.537-2.089
		c0.191-0.053,0.402-0.149,0.615-0.254c-0.117-0.08-0.236-0.183-0.353-0.351c0.351-0.935,0.698-1.862,1.047-2.793
		c-0.628-0.314-1.247-0.644-1.872-0.965c1.019-0.184,1.538-0.776,1.897-1.538l-7.094,1.889c1.203,1.189,2.099,2.365,2.79,3.431
		c0.327-0.526,0.654-1.053,0.985-1.583c0.063,0.803-0.102,1.645-0.44,2.468c0.983,1.711,1.357,2.963,1.389,3.084
		c0.247,1.473,0.454,3.442,0.621,5.4c0.501,0.125,0.996,0.248,1.475,0.366C126.207,170.205,126.939,169.523,126.745,167.968z
		 M122.806,158.936c-0.474-0.076-0.954-0.168-1.375-0.359c-0.225-0.107-0.339-0.418-0.614-0.778c0.482-0.141,0.839-0.362,1.05-0.281
		c0.466,0.179,0.866,0.499,1.26,0.809C123.153,158.347,122.843,158.943,122.806,158.936z M123.41,165.269
		c1.231-4.256,1.676-1.114,2.564-1.329C124.822,166.912,124.292,164.662,123.41,165.269z M93.775,184.325
		c-0.775-0.593-1.68-0.55-1.169-1.935c0.303-0.817,0.481-1.662,0.783-2.736c0.126,0.004,0.288,0.01,0.427,0.015
		c-0.036-0.46-0.074-0.918-0.116-1.381c-1.069-0.082-1.8-0.141-2.522-0.197c-0.023,0.422-0.046,0.842-0.071,1.344
		c-0.323,0.216-0.693,0.513-1.082,0.717c-0.047,0.025-0.073,0.016-0.118,0.037c0.157,1.911,0.275,3.781,0.35,5.097l3.872-1.034
		c-0.021-0.347-0.043-0.734-0.069-1.146C93.987,183.427,93.884,183.808,93.775,184.325z M44.221,191.247
		c-0.391-0.447-0.897-0.231-1.256,0.637c-0.238,0.578-0.67,1.101-1.016,1.648c-0.046-0.176-0.092-0.356-0.138-0.534
		c-0.113,0.006-0.227,0.013-0.339,0.02c0.159,1.938,0.28,3.842,0.357,5.177l3.869-1.032c-0.065-1.134-0.162-2.655-0.285-4.256
		C45.044,192.322,44.663,191.747,44.221,191.247z M130.788,158.049c0.815,1.174,1.376,2.234,1.727,3.025
		c0.533-1.087,1.08-2.205,1.679-3.43c-0.023-0.109-0.046-0.218-0.068-0.314c-0.112-0.438-0.073-0.956-0.128-1.429
		c-0.012-0.114-0.132-0.182-0.25-0.324c-0.086,0.263-0.162,0.502-0.239,0.741c0.079,0.034,0.162,0.067,0.24,0.102
		c-0.012,0.146-0.025,0.293-0.036,0.441C132.738,157.257,131.763,157.652,130.788,158.049z M128.739,155.023
		c-0.064,0.11-0.131,0.22-0.195,0.33c0.887,0.903,1.616,1.796,2.203,2.634c-0.039-0.102-0.077-0.204-0.115-0.307
		c0.365-0.459,0.714-0.898,1.039-1.307c-0.452-0.168-0.906-0.334-1.383-0.511c0.315-0.322,0.576-0.689,0.658-0.661
		c0.632,0.216,1.229,0.509,1.837,0.776c-0.008-0.12-0.018-0.241-0.028-0.362c0.719-0.276,1.438-0.629,2.151-0.806
		c0.789-0.202,1.51-0.363,1.83-1.46c-0.003-0.002-0.005-0.007-0.007-0.009c-0.007-0.003-0.012-0.005-0.019-0.009
		c-0.473,0.412-0.946,0.814-1.419,1.223c-0.051-0.139-0.106-0.271-0.156-0.408c0.311-0.361,0.625-0.722,0.939-1.08l-5.387,1.437
		c-0.258,0.305-0.498,0.641-0.686,1.062c-0.124-0.197-0.25-0.392-0.373-0.59l0.16-0.232L128.739,155.023z M126.42,156.301
		c0.015,0.017,0.027,0.031,0.04,0.047c0.008-0.02,0.017-0.039,0.024-0.061C126.461,156.292,126.444,156.296,126.42,156.301z
		 M39.624,191.193c0.461-0.343,0.976-0.558,1.742-0.978c0.014,0.067,0.11,0.502,0.205,0.939c0.119-0.085,0.237-0.174,0.356-0.259
		c0.074-0.477,0.147-0.95,0.21-1.362c0.741,0.087,1.493,0.056,2.121,0.283c0.291,0.105,0.609,0.188,0.912,0.287
		c-0.069-0.731-0.147-1.429-0.227-2.089l-0.638-0.824c0.084-0.089,0.168-0.176,0.251-0.263c0.083,0.033,0.169,0.069,0.252,0.103
		c-0.032-0.214-0.06-0.445-0.094-0.64c-0.006-0.005-1.131-3.908-5.205-7.585l-8.034,2.145c3.644,3.595,4.669,7.186,4.725,7.395
		c0.292,1.737,0.527,4.158,0.705,6.441c0.385-0.08,0.784-0.21,1.13-0.171c0.408,0.046,0.754,0.285,1.208,0.476
		c-0.918,1.667-1.529,2.101-2.214,1.352c0.027,0.382,0.051,0.746,0.076,1.101c1.046,0.098,2.084,0.185,3.072,0.273
		c-0.009,0.277-0.016,0.551-0.025,0.826l0.47-0.124c-0.081-1.422-0.212-3.444-0.382-5.465c-0.244,0.003-0.489,0.014-0.721-0.015
		c-0.438-0.051-0.779-0.408-1.166-0.627C38.772,192,39.171,191.529,39.624,191.193z M127.405,173.57
		c-0.211-1.256-0.333-1.667-0.956-1.626c-0.144,0.422-0.295,0.864-0.432,1.268c-0.646,0.136-1.282,0.046-1.795,0.26
		c0.072,1.023,0.13,1.962,0.171,2.715l0.404-0.107c0.121-0.304,0.243-0.608,0.362-0.91c0.137,0.23,0.276,0.46,0.42,0.702
		l2.217-0.592c-0.032-0.541-0.073-1.188-0.115-1.873C127.587,173.463,127.495,173.517,127.405,173.57z M48.804,192.515
		c-0.426,0.305-0.719,0.914-1.129,1.296c-0.287,0.265-0.598,0.486-0.913,0.705c0.059,0.87,0.107,1.671,0.146,2.323l3.4-0.905
		c-0.061-1.068-0.151-2.486-0.264-3.978C49.629,192.047,49.206,192.229,48.804,192.515z M29.822,181.385l-8.03,2.141
		c3.643,3.597,4.666,7.193,4.722,7.398c0.125,0.736,0.237,1.601,0.341,2.523c0.751,0.194,1.523,0.342,2.227,0.628
		c0.177,0.073,0.111,0.625,0.158,0.955c-0.337,0.096-0.776,0.37-0.992,0.257c-0.465-0.25-0.882-0.587-1.295-0.921
		c0.181,1.787,0.328,3.698,0.44,5.344c0.3,0.076,0.6,0.15,0.902,0.223c-0.336-0.005-0.624-0.009-0.891-0.016
		c0.052,0.773,0.096,1.495,0.131,2.087l3.4-0.907c-0.017-0.3-0.039-0.645-0.061-0.99c-0.07-0.022-0.138-0.041-0.212-0.059
		c0.073-0.026,0.134-0.047,0.205-0.07c-0.087-1.405-0.204-3.123-0.354-4.815c-0.002-0.029-0.002-0.057-0.002-0.08
		c0.006-0.295,0.207-0.58,0.465-0.729c-0.073-0.281-0.139-0.551-0.196-0.76c1.411-0.487,2.617-0.624,3.611-1.322
		c0.419-0.293,0.733-0.423,1.005-0.469c-0.112-1.048-0.233-2.03-0.368-2.834C35.023,188.963,33.897,185.058,29.822,181.385z
		 M33.509,188.335c-1.573-1.08-1.573-1.08-1.331-1.753C33.73,187.411,33.73,187.411,33.509,188.335z M10.264,201.219
		c-0.035,0.154-0.069,0.311-0.104,0.467c0.368,0.262,0.735,0.523,1.154,0.819c-1.108,1.118-1.879,0.397-2.329-0.094
		c-0.419-0.457-0.919-0.894-1.272-1.471c0.069,0.754,0.131,1.508,0.186,2.243c0.566,0.339,1.031,0.828,1.284,1.676
		c-0.381,0.095-0.765,0.204-1.144,0.303c0.047,0.741,0.091,1.433,0.122,2.006l3.4-0.905c-0.078-1.378-0.203-3.324-0.366-5.281
		C10.866,201.066,10.561,201.143,10.264,201.219z M25.139,199.156c0.331,0.083,0.667,0.163,1,0.246
		c-0.186-2.654-0.455-5.8-0.799-7.851c-0.002-0.007-1.128-3.911-5.204-7.584l-8.031,2.141c3.64,3.597,4.667,7.188,4.721,7.398
		c0.224,1.335,0.414,3.079,0.572,4.849c0.056,0.18,0.111,0.362,0.166,0.543c-0.036,0.025-0.073,0.049-0.11,0.075
		c0.18,2.103,0.313,4.184,0.395,5.611l3.401-0.904c-0.089-1.532-0.231-3.763-0.422-5.938c-0.003-0.025-0.002-0.053-0.003-0.074
		c0.009-0.333,0.238-0.675,0.545-0.797c0.333-0.131,0.624,0.046,0.656,0.398c0.196,2.242,0.341,4.543,0.43,6.087l3.87-1.029
		c-0.041-0.698-0.091-1.542-0.154-2.46C25.288,199.797,25.235,199.636,25.139,199.156z M4.156,203.563
		c-0.038-0.115-0.242-0.137-0.261-0.251c-0.062-0.395-0.078-0.814-0.139-1.568c0.911,0.503,1.939,0.665,2.868,0.92
		c-0.172-2.151-0.392-4.374-0.654-5.946c0,0-0.004-0.01-0.005-0.011c-0.001-0.017-0.005-0.035-0.007-0.053
		c-0.002-0.005-0.601-2.059-2.477-4.585c-0.142,0.004-0.284,0.008-0.426,0.013c0.014-0.128,0.031-0.257,0.048-0.385
		c0.03-0.004,0.061-0.006,0.09-0.007c-0.662-0.85-1.465-1.741-2.438-2.621L0,189.27v6.285c0.778,0.441,0.907,1.521,0.543,3.388
		c-0.177-0.105-0.358-0.214-0.543-0.326v5.713c0.21-0.619,0.421-1.237,0.63-1.855c0.124-0.026,0.247-0.05,0.373-0.077
		c0.159,0.349,0.32,0.697,0.502,1.093c-0.017-0.194-0.032-0.388-0.049-0.583c-0.003-0.029-0.002-0.055-0.002-0.08
		c0.008-0.33,0.239-0.673,0.547-0.797c0.321-0.129,0.603,0.044,0.648,0.376c0.193,2.231,0.339,4.514,0.425,6.051l0.008-0.003
		c0,0.022,0.003,0.046,0.003,0.066l3.871-1.032c-0.034-0.596-0.079-1.312-0.131-2.078C5.14,205.643,4.732,205.314,4.156,203.563z
		 M2.428,197.993c-0.008-0.012-0.019-0.021-0.028-0.034c-0.003-0.015-0.005-0.029-0.008-0.041c-1.309-0.681-1.504-1.325-0.488-2.952
		c0.163,0.986,0.326,1.969,0.488,2.952c0.012,0.006,0.02,0.012,0.033,0.018C2.427,197.958,2.428,197.973,2.428,197.993
		c0.705,0.797,1.407,1.598,2.15,2.443C3.161,200.937,2.453,200.067,2.428,197.993z M10.45,186.549l-2.992,0.799l0.002-0.067
		l-5.053,1.347c0.019,0.019,0.031,0.036,0.05,0.055l-0.039,0.008c0.991,0.978,1.773,1.95,2.409,2.859
		c0.138-0.012,0.276-0.023,0.416-0.036c-0.027,0.168-0.053,0.335-0.08,0.501l-0.023,0.002c0.881,1.342,1.424,2.5,1.711,3.231
		c1.415-0.441,0.965,1.486,1.598,2.041c-0.448,0.125-0.807,0.141-1.118,0.097c0.068,0.513,0.131,1.054,0.193,1.616
		c1.087,0.325,2.037,0.615,2.804,0.847c0.55-0.481,1.261-1.173,1.3-1.13c0.212,0.253,0.397,0.533,0.585,0.837
		c0.034,0.043,0.063,0.087,0.083,0.143c0.162,0.273,0.323,0.558,0.508,0.873c-0.144,0.036-0.265,0.066-0.396,0.099
		c0.161,1.971,0.285,3.912,0.364,5.266l3.87-1.03c-0.163-2.777-0.503-7.879-0.985-10.776
		C15.65,194.128,14.526,190.222,10.45,186.549z M11.6,198.434c-0.301-1.384-0.855-1.055-1.402-0.277
		c-0.788-0.979-0.82-1.577-0.165-1.863C10.947,195.893,11.846,196.776,11.6,198.434z M10.072,195.219
		c-0.698-0.916-1.207-1.587-1.698-2.236c0.243-0.265,0.641-0.696,1.112-1.212c0.76,0.682,1.524,1.371,2.563,2.304
		C11.061,194.647,10.389,195.037,10.072,195.219z M15.866,202.44c-1.36-0.096-1.455-0.205-1.27-1.574
		c0.56,0.416,1.071,0.796,1.582,1.177C16.073,202.176,15.969,202.307,15.866,202.44z M156.684,132.521
		c-1.378,0.178-2.655,0.34-3.885,0.506c-0.169,0.252-0.356,0.533-0.537,0.804c1.312-0.141,2.622-0.273,3.928-0.384
		c0.008-0.013,0.018-0.026,0.027-0.038c-0.016-0.018-0.031-0.039-0.047-0.058C156.338,133.081,156.512,132.8,156.684,132.521z
		 M152.213,143.573c0.033-0.041,0.061-0.083,0.094-0.124c-0.061,0.019-0.138,0.045-0.199,0.066
		C152.144,143.533,152.177,143.554,152.213,143.573z M159.037,126.579c0.033-0.051,0.062-0.1,0.092-0.151
		c-0.071,0.001-0.145,0.005-0.216,0.006C158.916,126.5,158.969,126.544,159.037,126.579z M157.74,140.342
		c-0.126,0.332-0.284,0.637-0.422,0.959c0.095,0.235,0.124,0.496,0.084,0.785c0.069-0.06,0.132-0.117,0.202-0.181
		c0.003,0.128,0.005,0.248,0.008,0.37c0.203-0.31,0.533-0.729,0.774-1.096c0.019,0.012,0.031,0.02,0.05,0.033
		c0.584-0.809,1.165-1.619,1.749-2.431c-0.035-0.149-0.07-0.301-0.093-0.478c0.15-0.004,0.299-0.01,0.448-0.015
		c0.305-0.422,0.61-0.847,0.916-1.272l-2.534,0.677C158.402,138.819,158.028,139.583,157.74,140.342z M158.903,126.412
		c-0.002,0.007-0.005,0.015-0.007,0.022c0.004-0.001,0.01,0,0.016,0C158.912,126.424,158.902,126.419,158.903,126.412z
		 M162.812,108.544c-0.029,0.235-0.042,0.47-0.037,0.705c0.03-0.246,0.059-0.486,0.085-0.724
		C162.843,108.529,162.828,108.538,162.812,108.544z M162.286,129.478c0.02,0.003,0.044,0.004,0.064,0.006
		c-0.007-0.044-0.013-0.084-0.02-0.134C162.313,129.396,162.301,129.433,162.286,129.478z M157.627,143.013
		c0.03-0.028,0.055-0.052,0.082-0.077c0.005-0.015,0.011-0.03,0.016-0.045c-0.038-0.022-0.068-0.048-0.102-0.075
		C157.624,142.883,157.626,142.941,157.627,143.013z M153.414,135.386c0.022-0.045,0.046-0.089,0.071-0.136
		c-0.031,0.014-0.06,0.025-0.089,0.038C153.394,135.286,153.402,135.322,153.414,135.386z M155.18,125.97l0.172-0.044
		c-0.042,0.003-0.084,0.021-0.126,0.024c0.027-0.044,0.055-0.09,0.083-0.136C155.265,125.866,155.223,125.919,155.18,125.97z
		 M0,205.026v4.317l1.876-0.499c-0.062-1.085-0.152-2.528-0.267-4.045C0.966,204.89,0.469,204.96,0,205.026z M135.884,160.603
		c0.045-0.096,0.091-0.192,0.139-0.289c-0.035-0.138-0.078-0.267-0.104-0.412c0.094-0.048,0.235-0.154,0.259-0.125
		c0.023,0.024,0.046,0.047,0.068,0.07c0.104-0.211,0.205-0.42,0.307-0.63c-0.314,0.099-0.622,0.198-0.927,0.297
		c-0.052,0.117-0.095,0.244-0.16,0.345c-0.251,0.4-0.62,0.66-0.935,0.981c0.01-0.33,0.008-0.656,0.031-0.99
		c-0.096,0.03-0.2,0.063-0.297,0.095c-0.461,0.614-0.948,1.264-1.431,1.907c0.141,0.375,0.212,0.624,0.225,0.673
		c0.13,0.759,0.246,1.654,0.352,2.609c0.606-1.526,0.987-2.856,1.621-3.695C135.285,161.107,135.577,160.845,135.884,160.603z
		 M131.644,170.794c0.2,1.001-0.001,2.2,0.035,3.323c-0.434,0.064-0.843,0.125-1.246,0.185c0.019,0.085,0.039,0.173,0.057,0.259
		l2.062-0.549c0.091-0.229,0.188-0.472,0.283-0.708c-0.049-0.797-0.108-1.711-0.179-2.697
		C132.338,170.594,132.005,170.643,131.644,170.794z M156.631,146.273c0.043-0.135,0.088-0.269,0.131-0.404
		c-0.085,0.145-0.17,0.293-0.255,0.436L156.631,146.273z M55.182,192.658c0.03,0.003,0.056,0.008,0.084,0.012
		c-0.186-2.823-0.48-6.542-0.867-8.863c-0.005-0.004-1.128-3.912-5.205-7.583l-8.032,2.141c3.642,3.596,4.668,7.19,4.724,7.397
		c0.092,0.538,0.173,1.156,0.253,1.801c0.14,0.058,0.273,0.111,0.417,0.167c0.024-0.293,0.047-0.561,0.061-0.723
		c1.115,0.044,2.474-0.453,2.945,0.926c0.007,0.018,0.095-0.032,0.129-0.018c2,0.896,4.098,1.67,4.801,4.248
		c0.209,0.764,0.381,1.551,0.598,2.441c-1.096-0.124-2.135,0.075-2.603-1.345c-0.224-0.668-0.668-1.073-1.21-1.256
		c0.101,1.363,0.182,2.641,0.236,3.61l3.87-1.031c-0.026-0.466-0.06-1.011-0.096-1.585C55.251,192.883,55.217,192.77,55.182,192.658
		z M155.281,121.754c-0.194,0.267-0.384,0.551-0.557,0.87c0.085-0.114,0.174-0.242,0.271-0.402
		C155.09,122.066,155.187,121.909,155.281,121.754z M122.618,172.513c0.104,0.097,0.21,0.172,0.319,0.24
		c-0.13-1.736-0.289-3.59-0.482-5.193c-0.045-0.048-0.101-0.107-0.137-0.146c-1.784,0.735-1.593-0.384-1.263-1.656
		c-0.3-0.078-0.611-0.159-0.922-0.24c0.04-0.176,0.081-0.354,0.124-0.533c0.598,0.071,1.348-0.068,1.769,0.251
		c-0.15-0.396-0.426-1.021-0.834-1.782c-0.7,1.004-1.655,1.926-2.825,2.629c0.784-1.261,1.522-2.448,2.249-3.616
		c-0.073-0.119-0.132-0.226-0.211-0.348c-0.731-0.127-1.462-0.255-2.194-0.384c0.085-0.231,0.173-0.465,0.26-0.702
		c0.453,0.093,0.907,0.185,1.362,0.278c-0.732-1.01-1.645-2.091-2.834-3.162l-8.031,2.138c2.22,2.193,3.457,4.374,4.106,5.797
		c0.154-0.164,0.293-0.313,0.456-0.489c-0.047-0.111-0.162-0.376-0.278-0.637c0.564-0.461,1.064-0.87,1.496-1.224
		c1.119,0.326,2.415,0.372,2.362,2.35c-0.889,0.027-1.74,0.052-2.593,0.081c0.049,0.096,0.094,0.193,0.141,0.289
		c-0.369,0.268-0.735,0.554-1.104,0.809c0.075,0.221,0.129,0.387,0.138,0.423c0.515,3.077,0.863,8.309,1.02,11.08l3.401-0.906
		c-0.088-1.531-0.23-3.762-0.42-5.936c-0.004-0.027-0.003-0.052-0.005-0.077c0.01-0.331,0.241-0.674,0.547-0.796
		c0.332-0.132,0.626,0.047,0.654,0.396c0.141,1.623,0.255,3.263,0.342,4.638C120.687,173.059,121.892,171.848,122.618,172.513z
		 M119.009,169.137c-0.32,0.044-0.638,0.089-0.844,0.115c-0.566,1.467-1.068,2.772-1.573,4.077
		c-0.148-0.082-0.294-0.165-0.441-0.246c0.894-1.427,0.393-3.692,2.233-4.516c0.251-0.113,0.474,0.21,0.709,0.332
		C119.066,168.979,119.037,169.058,119.009,169.137z M0,168.58v0.014c0.005-0.006,0.01-0.012,0.015-0.018L0,168.58z M74.644,132.027
		c0.179-0.184,0.355-0.364,0.533-0.547c-0.702-0.484-0.61-1.63-2.441-1.173c-0.213,0.052-0.424,0.038-0.633-0.015
		c-0.043,0.386-0.086,0.781-0.134,1.192c0.443-0.104,0.893-0.249,1.331-0.448C73.775,131.383,74.209,131.705,74.644,132.027z
		 M6.139,158.546c-1.963-0.125-3.96,0.46-4.981,1.824C0.8,160.242,0.438,160.112,0,159.956v7.378l1.282-0.342
		C3.853,163.461,5.34,160.443,6.139,158.546z M62.17,184.551c0.076-0.195,0.155-0.391,0.231-0.587
		c0.698,0.159,1.395,0.32,2.093,0.481c-0.124-1.192-0.258-2.317-0.409-3.217c-0.005-0.009-1.13-3.91-5.205-7.585l-8.032,2.14
		c3.642,3.596,4.667,7.19,4.724,7.395c0.048,0.291,0.093,0.615,0.139,0.939c0.524-0.143,1.082-0.293,1.747-0.475
		c-0.66-0.74-1.123-1.264-1.587-1.787c0.139-0.157,0.276-0.314,0.415-0.474c0.363,0.288,0.743,0.554,1.086,0.867
		c0.799,0.729,0.623,1.403-0.435,2.309c-0.29,0.248-0.499,0.9-0.523,1.317c-0.027,0.427,0.219,0.792,0.412,1.378
		c-0.298-0.098-0.55-0.19-0.78-0.283c0.207,2.092,0.367,4.325,0.473,6.066c0.155,0.093,0.293,0.204,0.391,0.351
		c0.139,0.21,0.255,0.446,0.361,0.692l2.723-0.726c-0.089-1.534-0.231-3.763-0.423-5.935c0-0.03-0.001-0.056,0-0.081
		c0.004-0.245,0.154-0.467,0.347-0.633l-1.887-1.012c0.138-0.225,0.275-0.449,0.413-0.672c0.691,0.44,1.381,0.881,2.071,1.322
		c-0.036,0.058-0.072,0.114-0.106,0.173c0.192,0.038,0.339,0.185,0.361,0.423c0.193,2.247,0.34,4.546,0.427,6.092l3.872-1.034
		c-0.1-1.775-0.277-4.495-0.518-6.982C63.759,184.86,62.964,184.705,62.17,184.551z M133.72,140.909l0.201-0.054
		c-0.037-0.026-0.074-0.054-0.11-0.082C133.781,140.819,133.75,140.867,133.72,140.909z M45.549,163.835
		c0.139-0.119,0.279-0.238,0.419-0.356c0.169,0.309,0.512,0.466,0.907,0.579l13.763-3.668c-0.139-0.101-0.272-0.223-0.396-0.373
		c1.043-0.187,2.154-0.386,3.345-0.599c-0.068,0.09-0.137,0.161-0.206,0.242l65.496-17.459c-0.06-0.019-0.121-0.04-0.181-0.062
		c0.488-0.767,0.815-1.288,1.292-2.041c0.227,0.601,0.425,1.129,0.618,1.642l2.079-0.555c0.465-0.973,0.985-1.299,1.609-1.126
		c-0.143,0.211-0.286,0.424-0.429,0.637c0.226-0.005,0.448-0.008,0.644,0.003l0.563-0.148c0.577-1.231,1.15-2.51,1.895-3.412
		c0.834-1.012,2.025-1.253,3.057-1.838c0.013,0.218,0.023,0.434,0.037,0.652c-0.474,0.42-0.956,0.843-1.448,1.279
		c0.216,0.486,0.385,0.921,0.533,1.335c0.518,0.146,1.033,0.296,1.546,0.449c-0.056-0.289-0.089-0.647-0.087-0.924
		c0.003-0.214,0.48-0.696,0.744-1.055c0.116-0.031,0.233-0.066,0.35-0.099c-0.125,0.468-0.254,0.938-0.385,1.406
		c0.134-0.042,0.263-0.086,0.392-0.125c0.344-0.431,0.688-0.865,0.703-0.882c-0.052-0.889-0.131-1.667-0.182-2.411
		c-0.199,0.065-0.4,0.035-0.52-0.124c-0.073-0.095-0.105-0.22-0.104-0.352c0.006-0.209,0.099-0.431,0.266-0.605
		c0.113-0.116,0.211-0.228,0.314-0.344c0.002-0.04,0.001-0.082,0.004-0.124c-0.382-0.141-0.957-0.164-1.386-0.275
		c-0.056-0.268-0.001-0.633-0.189-0.785c-0.386-0.31-0.991-0.431-1.341-0.763c-0.009-0.01-0.015-0.018-0.023-0.027l-0.684,0.183
		c0.322,0.374,0.64,0.747,0.955,1.118c-1.288,0.469-2.59,0.943-3.917,1.427c-0.832,1-1.74,2.023-2.746,3.06
		c-0.275,0.283-0.647,0.312-0.835,0.068c-0.074-0.095-0.107-0.22-0.103-0.353c0.002-0.205,0.096-0.433,0.264-0.605
		c0.551-0.566,1.054-1.126,1.548-1.682c0.004-0.5,0.008-1.105,0.013-1.749l-2.495,0.665c0.436,0.185,0.877,0.391,1.371,0.561
		c-0.671,0.456-1.026,0.699-1.293,0.88c-0.244-0.38-0.469-0.729-0.596-0.923c-0.653,0.577-1.039,1.085-1.507,1.294
		c-1.006,0.453-2.055,0.752-2.99,1.078c-0.005-0.024-0.011-0.058-0.015-0.082c-0.34,0.415-0.691,0.835-1.06,1.255
		c0.254,0.152,0.546,0.261,0.928,0.274c-0.074,0.153-0.15,0.309-0.226,0.465c-0.535,0.102-1.08,0.204-1.637,0.311
		c-0.342,0.374-0.688,0.746-1.053,1.122c-0.275,0.285-0.649,0.315-0.836,0.072c-0.07-0.099-0.104-0.222-0.1-0.355
		c0.003-0.135,0.054-0.273,0.128-0.404c-0.01-0.026-0.021-0.05-0.033-0.077c-0.205,0.04-0.395,0.073-0.602,0.114
		c-0.052,0.446-0.101,0.892-0.17,1.341c-0.032,0.209-0.378,0.646-0.566,0.731c-0.451,0.21-0.896,0.277-1.87,0.545
		c0.953-1.779,1.666-3.113,2.361-4.414c-0.794-0.078-1.59-0.163-2.515-0.265c0.24-0.154,0.446-0.287,0.663-0.429l-1.633,0.435
		c-0.025,0.033-0.052,0.065-0.076,0.097c-0.056,0.117-0.156,0.24-0.283,0.368c-0.198,0.256-0.39,0.512-0.596,0.772
		c0.828,0.469,1.59,0.901,2.343,1.328c-1.532,0.087-2.545-0.079-3.068-0.444c-0.859,1.036-1.792,2.093-2.835,3.167
		c-0.274,0.282-0.649,0.311-0.836,0.068c-0.072-0.095-0.106-0.22-0.102-0.351c0.004-0.208,0.096-0.434,0.264-0.605
		c1.257-1.295,2.351-2.566,3.337-3.8c0.015-0.039,0.028-0.077,0.04-0.115l-6.574,1.753c0.584,0.377-0.36,1.544,0.08,2.006
		c-3.289,0.972-1.676-0.661-1.368-1.665l-0.013,0.004c-1.262,1.686-2.747,3.464-4.515,5.285c-0.276,0.286-0.648,0.315-0.833,0.07
		c-0.075-0.093-0.106-0.222-0.103-0.352c0.006-0.207,0.098-0.433,0.264-0.605c0.465-0.479,0.883-0.948,1.305-1.419
		c-1.41,0.265-2.821,0.527-4.227,0.792l0.224-0.531c-0.231-0.295-0.476-0.605-0.741-0.939l-1.061,0.282
		c-1.084,1.447-2.34,2.961-3.787,4.512c1.624-0.651,2.991-0.317,3.161,0.884c-1.253-0.07-2.408-0.137-3.791-0.214
		c-0.033,0.033-0.061,0.067-0.096,0.102c-0.276,0.284-0.65,0.315-0.834,0.069c-0.075-0.094-0.107-0.219-0.105-0.35
		c0.005-0.206,0.099-0.435,0.266-0.607c1.299-1.34,2.434-2.658,3.446-3.932l-6.792,1.81c0.06,0.012,0.111,0.022,0.175,0.032
		c-0.571,0.211-1.048,0.353-1.458,0.443c-1.238,1.639-2.676,3.358-4.386,5.121c-0.276,0.284-0.65,0.315-0.836,0.068
		c-0.073-0.096-0.104-0.222-0.102-0.352c0.005-0.209,0.095-0.434,0.265-0.606c1.298-1.34,2.435-2.66,3.446-3.933l-7.948,2.119
		c-1.263,1.687-2.744,3.464-4.512,5.287c-0.276,0.283-0.649,0.312-0.834,0.066c-0.073-0.093-0.105-0.218-0.102-0.352
		c0.003-0.208,0.097-0.431,0.264-0.605c1.303-1.342,2.435-2.659,3.448-3.934l-7.949,2.12c-1.261,1.686-2.745,3.463-4.512,5.282
		c-0.275,0.286-0.649,0.316-0.836,0.073c-0.072-0.097-0.104-0.222-0.1-0.355c0.004-0.204,0.097-0.434,0.264-0.606
		c1.301-1.34,2.434-2.657,3.444-3.931l-0.516,0.137c-0.072,0.115-0.145,0.231-0.218,0.347c-0.28-0.032-0.579-0.041-0.87-0.057
		l-6.341,1.69c-1.264,1.689-2.747,3.465-4.516,5.287c-0.273,0.282-0.648,0.313-0.833,0.069c-0.073-0.096-0.106-0.221-0.103-0.353
		c0.005-0.208,0.097-0.432,0.265-0.605c1.301-1.341,2.436-2.66,3.446-3.933l-7.723,2.058c0.007,0.005,0.012,0.01,0.017,0.017
		c-0.096,0.038-0.185,0.061-0.279,0.094c-1.255,1.673-2.724,3.432-4.474,5.236c-0.274,0.282-0.65,0.313-0.834,0.067
		c-0.074-0.093-0.106-0.218-0.102-0.352c0.004-0.207,0.095-0.43,0.265-0.605c1.287-1.327,2.407-2.629,3.411-3.892
		c-0.093,0.014-0.188,0.032-0.277,0.041l-4.547,1.211c0.095-0.012,0.191-0.031,0.285-0.041c0.136-0.016,0.173,0.409,0.379,0.961
		c-1.533,0.038-2.723,0.069-3.903,0.098c-1.232,1.631-2.661,3.339-4.362,5.09c-0.278,0.286-0.65,0.315-0.836,0.07
		c-0.073-0.095-0.105-0.221-0.102-0.352c0.004-0.205,0.096-0.434,0.264-0.605c1.302-1.343,2.435-2.659,3.449-3.935l-7.948,2.119
		c-1.262,1.687-2.747,3.465-4.516,5.286c-0.274,0.285-0.649,0.316-0.834,0.069c-0.071-0.094-0.107-0.218-0.102-0.351
		c0.004-0.208,0.098-0.433,0.266-0.606c1.301-1.339,2.433-2.657,3.445-3.934l-7.944,2.118c-1.263,1.687-2.746,3.464-4.517,5.289
		c-0.273,0.283-0.648,0.312-0.833,0.068c-0.075-0.096-0.105-0.22-0.103-0.353c0.006-0.209,0.096-0.431,0.265-0.606
		c1.302-1.341,2.435-2.658,3.448-3.934l-7.946,2.119c-1.035,1.382-2.224,2.822-3.589,4.3l0.04-1.683
		c0.642-0.729,1.248-1.447,1.81-2.154l-1.772,0.472l0.002-0.065l-6.189,1.649c-0.54,0.72-1.129,1.461-1.755,2.212v6.229
		l46.075-12.281C45.897,164.122,45.722,163.978,45.549,163.835z M123.743,140.59c0.545,0.118,1.091,0.237,1.637,0.354
		c-0.287-0.391-0.569-0.792-0.813-1.223c-0.025-0.051,0.557-0.63,0.843-0.949c0.185,0.621,0.303,1.033,0.492,1.674
		c0.21-0.598,0.298-0.849,0.386-1.103c0.137-0.012,0.274-0.02,0.412-0.032c-0.077,0.627-0.152,1.251-0.227,1.875l1.308,0.286
		c-0.089,0.15-0.178,0.3-0.265,0.451c-1.366-0.262-2.732-0.526-4.097-0.79C123.524,140.95,123.635,140.769,123.743,140.59z
		 M113.152,144.091c0.071-0.015,0.139-0.03,0.211-0.046c0.06,0.327,0.122,0.654,0.16,0.866c1.312-0.228,2.48-0.43,3.646-0.634
		c-0.06,0.212-0.121,0.421-0.181,0.631c-1.302-0.157-3.226,1.714-4.076,0.162C112.798,144.858,113.063,144.423,113.152,144.091z
		 M110.763,146.536c-2.111-0.242-3.997-0.462-5.951-0.685C106.8,144.3,109.206,144.556,110.763,146.536z M9.967,169.476
		c-0.022-0.17-0.047-0.341-0.069-0.511c1.064-0.374,2.129-0.747,3.196-1.121C12.229,169.054,11.199,169.889,9.967,169.476z
		 M42.665,161.256c0.125-0.168,0.25-0.336,0.377-0.503c0.911,0.275,1.82,0.551,2.729,0.826c-0.167,0.221-0.333,0.443-0.497,0.664
		C44.403,161.914,43.533,161.584,42.665,161.256z M137.431,147.472c-0.594,0.101-1.214,0.33-2.214,0.613
		c0.32-0.424,0.581-0.771,0.825-1.096c0.982-2.083,1.749-2.601,3.261-2.394c-0.738,0.63-1.381,1.181-1.982,1.694
		c0.017,0.128,0.034,0.25,0.042,0.303c1.401-1.155,2.624-2.675,3.859-4.184l-2.493,0.663c-0.086,0.09-0.164,0.181-0.265,0.27
		c-0.046-0.051-0.069-0.115-0.107-0.171l-0.859,0.23c0.049,0.086,0.097,0.176,0.146,0.262c-0.778,0.967-1.554,1.936-2.332,2.903
		c-0.094-0.146-0.191-0.29-0.284-0.438c0.64-0.859,1.28-1.719,1.923-2.58l-7.273,1.94c0.14,0.007,0.276,0.021,0.379,0.087
		c0.945,0.61,1.601,1.666,2.305,2.457c-0.223,0.163-0.699,0.507-1.404,1.014c-0.171-1.246-0.8-1.692-1.917-1.656
		c-0.544,0.017-0.941-0.662-1.404-1.026c0.037-0.12,0.077-0.243,0.115-0.364l-18.63,4.966c0.021,0.044,0.053,0.082,0.072,0.126
		c0.045,0.104-0.42,0.596-0.651,0.909c-0.149-0.235-0.369-0.432-0.429-0.714c-0.003-0.017-0.003-0.036-0.006-0.051l-32.047,8.542
		c0.972,0.171,2.003,0.241,2.445,1.354c-1.46,0.356-2.349-0.335-3.163-1.162l-4.102,1.093c0.223,0.242,0.441,0.489,0.66,0.735
		c-0.087,0.092-0.174,0.184-0.265,0.277c-0.492-0.182-0.991-0.364-1.762-0.647L7.676,178.007l0-0.065L0,179.988v6.65
		c0.461,0.341,0.905,0.686,1.313,1.036l7.945-2.118c-0.536-0.409-1.115-0.818-1.732-1.208l0.039-1.682
		c1.312,0.763,2.451,1.583,3.433,2.428l7.945-2.118c-0.965-0.748-2.05-1.475-3.305-2.133c-0.161-0.086-0.244-0.264-0.239-0.472
		c0.003-0.133,0.042-0.276,0.121-0.412c0.199-0.348,0.576-0.517,0.842-0.38c1.706,0.897,3.123,1.903,4.323,2.933l7.946-2.121
		c-0.966-0.745-2.05-1.474-3.304-2.131c-0.162-0.085-0.245-0.263-0.241-0.471c0.004-0.132,0.043-0.278,0.121-0.413
		c0.201-0.349,0.577-0.518,0.84-0.379c1.707,0.897,3.125,1.903,4.325,2.929l7.945-2.116c-0.964-0.749-2.051-1.475-3.305-2.133
		c-0.161-0.084-0.244-0.262-0.24-0.471c0.005-0.133,0.042-0.277,0.121-0.411c0.202-0.35,0.578-0.52,0.844-0.381
		c1.703,0.897,3.123,1.903,4.323,2.932l7.944-2.117c-0.965-0.75-2.052-1.475-3.304-2.134c-0.162-0.086-0.245-0.263-0.239-0.472
		c0.002-0.13,0.04-0.275,0.12-0.411c0.199-0.346,0.577-0.517,0.842-0.376c1.706,0.893,3.122,1.897,4.323,2.93l7.944-2.116
		c-0.396-0.308-0.827-0.609-1.268-0.906c-1.179,0.021-2.36,0.042-3.542,0.063c0.066-0.188,0.129-0.371,0.197-0.559
		c0.794-0.036,1.585-0.072,2.377-0.106c-0.352-0.212-0.689-0.428-1.07-0.628c-0.16-0.085-0.245-0.264-0.239-0.472
		c0.002-0.132,0.042-0.275,0.121-0.413c0.2-0.347,0.575-0.516,0.84-0.378c1.706,0.897,3.123,1.903,4.326,2.93l1.613-0.429
		c-0.178-0.146-0.347-0.316-0.505-0.522c0.576,0.059,1.153,0.119,1.78,0.183l5.056-1.349c-0.963-0.748-2.051-1.475-3.305-2.132
		c-0.161-0.086-0.243-0.266-0.241-0.471c0.005-0.133,0.043-0.278,0.122-0.412c0.2-0.35,0.576-0.52,0.841-0.38
		c1.706,0.895,3.125,1.903,4.324,2.933l7.945-2.118c-0.964-0.749-2.051-1.475-3.302-2.134c-0.162-0.085-0.248-0.261-0.241-0.471
		c0.002-0.131,0.042-0.277,0.12-0.413c0.199-0.347,0.576-0.517,0.842-0.378c1.706,0.896,3.122,1.903,4.323,2.932l7.687-2.05
		c0.029-0.062,0.062-0.13,0.091-0.188c-0.235-0.179-0.493-0.352-0.744-0.529c-0.074,0.109-0.149,0.217-0.224,0.326
		c-0.392-0.411-0.785-0.817-1.179-1.227c-0.326-0.193-0.638-0.395-0.99-0.58c-0.162-0.087-0.245-0.266-0.24-0.473
		c0.004-0.135,0.042-0.279,0.121-0.415c0.197-0.345,0.575-0.516,0.84-0.376c1.308,0.688,2.445,1.438,3.447,2.218
		c0.367-0.107,0.768,0.015,1.242,0.365c0.11,0.081,0.259,0.105,0.397,0.145l1.276-0.341c-0.126-0.692-0.252-1.384-0.395-2.162
		c1.214-0.175,2.537-0.857,3.755-1.101c-0.254-0.148-0.489-0.303-0.758-0.446c-0.163-0.084-0.245-0.262-0.241-0.469
		c0.004-0.134,0.045-0.277,0.123-0.412c0.199-0.35,0.577-0.519,0.841-0.382c1.279,0.674,2.397,1.408,3.381,2.168
		c0.086-0.289,0.155-0.525,0.206-0.699c0.441,0.43,0.862,0.876,1.281,1.319l7.4-1.973c-0.965-0.749-2.05-1.473-3.302-2.135
		c-0.162-0.084-0.246-0.261-0.242-0.471c0.002-0.131,0.042-0.275,0.118-0.412c0.201-0.346,0.578-0.516,0.843-0.378
		c1.706,0.896,3.123,1.904,4.323,2.931l7.947-2.118c-0.966-0.746-2.052-1.475-3.306-2.132c-0.162-0.085-0.245-0.263-0.24-0.47
		c0.003-0.133,0.044-0.277,0.121-0.412c0.153-0.268,0.411-0.426,0.645-0.422c-0.155-0.073-0.302-0.141-0.461-0.211
		c1.654-0.447,3.552,0.132,4.811,1.256c2.535-1.231,2.894-1.126,3.149,0.784c-1.061-0.246-1.917-0.443-3.046-0.701
		c0.431,0.403,0.78,0.872,1.007,1.389c-1.644-0.758-3.172-1.464-4.81-2.218c1.499,0.829,2.779,1.741,3.87,2.674l7.943-2.117
		c-0.964-0.749-2.05-1.474-3.303-2.131c-0.164-0.086-0.243-0.267-0.241-0.473c0.004-0.131,0.044-0.278,0.121-0.413
		c0.123-0.212,0.312-0.345,0.501-0.397c-0.019-0.154-0.036-0.314-0.055-0.478c0.668,0.136,1.334,0.269,2.096,0.423
		c-0.075-0.535-0.123-0.905-0.221-1.633c0.489,0.222,0.918,0.473,1.31,0.754c0.563-0.983,1.137-1.986,1.811-3.161
		c0.005,1.443-0.474,2.815-1.157,3.728c0.687,0.674,1.2,1.515,1.509,2.694c-0.588-0.361-0.925-0.693-1.354-0.807
		c-0.575-0.155-1.174-0.397-1.777-0.428c0.925,0.598,1.763,1.22,2.505,1.858l3.254-0.869c-0.158-0.379-0.304-0.749-0.391-1.139
		c-0.072-0.337,0.083-0.799,0.135-1.208c1.235-0.121,1.191,0.704,1.206,1.479c0.453-0.65,0.907-1.304,1.361-1.953
		c0.109,0.176,0.218,0.353,0.33,0.53c-0.167,0.789-0.469,1.341-0.825,1.809l2.872-0.766c-0.963-0.748-2.051-1.474-3.301-2.134
		c-0.163-0.085-0.248-0.265-0.241-0.471c0.002-0.131,0.042-0.278,0.121-0.412c0.198-0.347,0.576-0.518,0.841-0.378
		c1.147,0.602,2.155,1.257,3.062,1.933c0.035-0.135,0.337-0.452,0.478-0.464c0.422-0.043,0.943-0.143,1.263-0.008
		c0.097-0.258,0.215-0.459,0.322-0.669c0.299-0.599,0.57-1.222,0.852-1.835C138.192,147.518,137.828,147.406,137.431,147.472z
		 M72.918,162.536c1.874-0.262,2.725,0.867,3.346,2.373C75.199,164.154,74.133,163.396,72.918,162.536z M74.089,161.111
		c1.456,0.237,2.789,0.453,4.329,0.702C75.26,163.017,73.972,162.773,74.089,161.111z M82.374,163.439
		c-0.271-0.04-0.541-0.079-0.812-0.116c0.199-0.53,0.398-1.063,0.595-1.592c0.191,0.01,0.377,0.022,0.564,0.033L82.374,163.439z
		 M85.445,159.763c0.04-0.137,0.076-0.276,0.115-0.411c0.956-0.507,1.905-1.038,2.879-1.497c0.183-0.087,0.583,0.043,0.672,0.197
		c0.215,0.378,0.303,0.829,0.608,1.752C87.984,159.787,86.713,159.776,85.445,159.763z M111.193,157.047
		c-1.2-0.111-2.401-0.226-3.742-0.349c1.744-1.361,2.751-0.558,3.839-0.04C111.258,156.788,111.225,156.919,111.193,157.047z
		 M119.418,152.655c-1.229,0.527-2.229,0.958-3.078,1.323c-0.666-0.386-1.252-0.725-1.793-1.04c0.826-0.861,1.684-1.751,2.393-2.491
		c0.857,0.76,1.531,1.357,2.336,2.071c-0.129-0.166-0.238-0.443-0.386-0.849c0.924-0.081,1.858-0.165,2.793-0.246
		C120.282,152.444,119.745,152.831,119.418,152.655z M128.295,149.404c0.371,0.813,0.733,1.608,1.209,2.663
		C127.782,151.82,127.488,150.956,128.295,149.404z M139.584,139.346c-0.068-0.023-0.134-0.048-0.2-0.072
		c0.009,0.037,0.026,0.08,0.036,0.116L139.584,139.346z M77.637,129.079c0.009,0.003,0.02,0.003,0.031,0.006l0.056-0.02
		c-0.026,0.004-0.043-0.002-0.07,0.004C77.649,129.073,77.642,129.078,77.637,129.079z M80.578,128.051
		c-1.206,0.431-2.042,0.727-2.854,1.015c1.167-0.179,1.676,0.256,1.803,1.165c0.085,0.637,0.377,1.193,0.587,1.78
		C80.288,130.643,80.445,129.279,80.578,128.051z M80.163,132.258c-0.276,0.191-0.557,0.385-0.866,0.594
		c0.21,0.145,0.304,0.31,0.432,0.291c2.051-0.328,5.353-2.116,3.75,1.756c-0.014,0.032,0.052,0.069,0.171,0.209
		c0.233-0.032,0.628-0.157,0.913-0.188c0.367-2.105,0.711-4.826,0.979-7.215c-0.433,0.809-0.866,1.623-1.342,2.514
		c-1.263,0.322-2.169,0.408-2.729,0.246c-0.055,0.463-0.11,0.925-0.169,1.388c-0.049,0.376-0.354,0.715-0.682,0.758
		C80.378,132.645,80.224,132.484,80.163,132.258z M75.888,130.018c0.047-0.426,0.093-0.837,0.135-1.232
		c-0.278-0.049-0.555-0.101-0.842-0.134c-0.915-0.111-1.872-0.141-2.916,0.108c0,0.009-0.003,0.017-0.004,0.029
		c1.187,0.436,2.324,0.954,3.609,1.235C75.876,130.022,75.883,130.018,75.888,130.018z M70.735,148.479l8.035-2.142
		c3.192-4.383,4.735-8.012,5.328-9.626c-1.471,1.107-2.588,2.082-3.831,2.819c-0.552,0.327-1.371,0.173-2.069,0.239
		c0.038-0.179,0.074-0.354,0.112-0.534c0.681-0.232,1.363-0.469,2.256-0.776c-1.085-0.304-1.939-0.549-2.669-0.752
		c0.483-0.469,0.843-0.82,1.204-1.17c-0.958-0.052-1.914-0.109-2.874-0.162c-0.112,0.719-0.229,1.412-0.347,2.02
		C75.802,138.68,74.594,142.88,70.735,148.479z M79.139,136.527l-0.012-0.016l-0.027,0.024c0.013,0.001,0.028,0.001,0.041,0.002
		C79.14,136.535,79.14,136.531,79.139,136.527z M78.176,127.471c0.751,0.13,1.522,0.262,2.42,0.414
		c0.101-0.933,0.189-1.792,0.257-2.465l-3.401,0.908c-0.02,0.201-0.044,0.448-0.07,0.682l0.947,0.36
		C78.278,127.404,78.226,127.44,78.176,127.471z M0,168.644v0.026c0.009-0.011,0.018-0.022,0.027-0.033L0,168.644z M78.253,168.478
		l-8.031,2.14c3.641,3.597,4.668,7.19,4.724,7.397c0.199,1.194,0.372,2.71,0.521,4.283c0.613,0.352,1.212,0.73,1.82,1.095
		c0.611,0.37,1.24,1.093,1.85,1.28c-0.059-0.792-0.119-1.605-0.191-2.418c-0.004-0.028-0.002-0.055-0.003-0.08
		c0.007-0.328,0.24-0.673,0.545-0.795c0.33-0.128,0.623,0.049,0.654,0.398c0.083,0.928,0.152,1.857,0.216,2.749
		c1.389-0.185,2.396,0.507,3.606,0.699c0.143,0.025,0.26,0.065,0.388,0.098c-0.183-2.861-0.489-6.83-0.894-9.263
		C83.454,176.054,82.326,172.15,78.253,168.478z M80.206,174.977c-2.023-0.297-2.318-0.579-1.67-1.791
		c0.66,0.486,1.303,0.957,1.944,1.428C80.388,174.735,80.298,174.854,80.206,174.977z M81.395,183.84
		c0.12-1.126,0.204-1.875,0.307-2.825c0.434,0.368,0.766,0.646,1.087,0.92C82.396,182.47,82.055,182.935,81.395,183.84z
		 M102.709,170.543c-0.222-0.109-0.439-0.229-0.66-0.331c-0.299-0.137-0.737-0.202-1.075-0.049c-1.196,0.543-3.083,0.017-3.33-1.157
		c-0.275-1.305-1.041-1.918-2.127-2.236c-0.332-0.099-0.576-0.399-1.006-0.708c2.742-1.116,5.582-0.142,6.434,2.006
		c0.105-0.192,0.205-0.332,0.3-0.447c-0.422-0.675-0.938-1.415-1.575-2.18c-1.047-0.034-2.029-1.123-3.013-1.868l-0.776,0.207
		c0.027,0.047,0.053,0.098,0.078,0.148c-0.123,0.133-0.245,0.269-0.365,0.4l-0.666-0.295l-3.694,0.985
		c0.055,0.85,0.126,1.694,0.2,2.535c2.143,2.779,2.841,5.13,2.882,5.297c0.311,1.843,0.558,4.459,0.741,6.86
		c0.293,0.01,0.587,0.019,0.888,0.03c-0.041,0.145-0.079,0.291-0.12,0.438c-0.294,0.036-0.524,0.068-0.723,0.1
		c0.1,1.387,0.181,2.678,0.235,3.654l3.403-0.909c-0.051-0.884-0.123-2.011-0.209-3.218c-0.416-0.075-0.831-0.154-1.248-0.232
		c0.078-0.221,0.154-0.443,0.23-0.665c0.322,0.072,0.646,0.142,0.967,0.215c-0.049-0.671-0.102-1.352-0.161-2.036
		c-0.004-0.025-0.004-0.049-0.003-0.077c0.006-0.329,0.236-0.673,0.543-0.795c0.331-0.13,0.625,0.047,0.658,0.396
		c0.01,0.115,0.018,0.231,0.028,0.346c0.18-0.058,0.331-0.092,0.355-0.034c0.171,0.406,0.11,0.986,0.141,1.498
		c-0.121,0.078-0.241,0.152-0.36,0.228l-0.002-0.002c0.018,0.257,0.036,0.506,0.055,0.754c0.747,0.165,1.494,0.332,2.24,0.497
		c-0.065,0.174-0.126,0.344-0.19,0.516c-0.668-0.123-1.336-0.249-2.004-0.374c0.067,1,0.123,1.922,0.168,2.662l3.868-1.031
		c-0.16-2.779-0.5-7.877-0.983-10.774C102.829,170.897,102.791,170.768,102.709,170.543z M135.567,165.52
		c-0.456-0.077-0.824-0.14-1.229-0.211c-0.127,0.691-0.388,1.295-0.726,1.838c0.059,0.642,0.114,1.281,0.164,1.917
		c0.424,0.028,0.856,0.107,1.3,0.289c0.183-0.637,0.266-1.296,0.539-1.804c0.469-0.876,1.007-1.709,1.566-2.488
		c-0.01-0.013-0.022-0.027-0.032-0.04c-2.144,2.79-2.192,2.804-2.971,2.322c1.086-0.888,2.007-1.642,2.92-2.388
		c-0.028-0.033-0.053-0.072-0.081-0.104c0.102-0.13,0.207-0.258,0.31-0.389c0.101,0.023,0.212,0.044,0.317,0.065
		c0.236-0.172,0.507-0.289,0.744-0.498c-0.637-0.836-1.324-1.551-1.826-2.407C136.232,162.914,135.903,164.201,135.567,165.52z
		 M90.755,175.13c-0.379,1.798,0.549,2.067,1.723,2.238c0.42,0.062,0.742,0.442,1.213,0.81c-0.154-1.733-0.337-3.428-0.549-4.697
		c-0.003-0.004-0.273-0.916-0.992-2.253c0.052,0.322,0.108,0.64,0.158,0.963c-0.747-0.094-1.493-0.182-2.236-0.288
		c-0.054-0.007-0.065-0.144-0.136-0.323c0.357-0.138,0.68-0.262,0.916-0.352c0.694-2.257-1.345-2.338-1.858-3.95
		c0.164,0.034,0.277,0.056,0.405,0.083c-0.44-0.488-0.921-0.978-1.464-1.465l-8.032,2.139c3.644,3.596,4.668,7.19,4.725,7.396
		c0.292,1.747,0.528,4.181,0.707,6.472c0.612-0.514,1.183-0.996,1.834-1.544c0.041,0.207,0.111,0.556,0.18,0.908
		c0.161-0.13,0.322-0.264,0.483-0.394c-0.139-0.475-0.279-0.947-0.42-1.421c0.105-0.091,0.208-0.181,0.313-0.27
		c0.343,0.823,0.695,1.666,1.068,2.559c-0.051-0.682-0.105-1.377-0.166-2.069c-0.005-0.029-0.003-0.052-0.003-0.079
		c0.006-0.26,0.169-0.495,0.379-0.658c0.06-0.612,0.171-1.247,0.278-2.004c1.288-0.625,0.527-1.903,1.023-3.414
		C90.534,174.281,90.847,174.7,90.755,175.13z M84.939,171.187c-0.133-0.051-0.266-0.101-0.398-0.154
		c0.211-0.438,0.359-1.069,0.652-1.257c0.29-0.187,0.724,0.073,1.432,0.195C85.765,170.59,85.353,170.889,84.939,171.187z
		 M87.049,175.31c-0.444-0.309-0.837-0.583-1.273-0.889c0.777-0.389,1.455-0.728,2.421-1.214
		C87.707,174.107,87.387,174.692,87.049,175.31z M88.709,171.107c-0.486-0.66-0.974-1.317-1.513-2.05
		c0.221-0.265,0.513-0.615,1.133-1.354c0.278,1.289,0.495,2.295,0.712,3.3C88.928,171.04,88.819,171.074,88.709,171.107z
		 M71.05,181.835c-0.24,1.151-0.386,1.849-0.53,2.548c-0.02,0.013-0.038,0.027-0.059,0.041c0.055,0.639,0.106,1.277,0.154,1.902
		c0.403-0.315,0.76-0.727,1.04-1.203c0.284-0.479,0.039-1.294-0.05-1.922C71.552,182.829,71.34,182.527,71.05,181.835z M83.826,187
		l0.342-0.092c-0.097-0.028-0.201-0.053-0.321-0.062C83.838,186.902,83.833,186.947,83.826,187z M73.855,181.97
		c0.125,0.004,0.221-0.005,0.333-0.011c-0.123-1.23-0.262-2.389-0.417-3.314c-0.005-0.008-1.131-3.913-5.205-7.587l-8.031,2.143
		c3.642,3.596,4.668,7.189,4.723,7.396c0.517,3.076,0.863,8.309,1.02,11.08l1.717-0.457c-0.347-0.117-0.695-0.249-1.043-0.406
		c0.758-0.581,1.313-1.006,1.944-1.494c0.083,0.39,0.142,0.672,0.2,0.952c0.126-0.132,0.251-0.263,0.374-0.393
		c-0.315-0.318-0.557-0.819-0.96-0.922c-1.096-0.277-2.073-0.685-2.298-2.01c-0.048-0.277,0.584-1.186,0.647-1.166
		c0.556,0.138,1.062,0.405,1.563,0.67c0.221,0.119,0.359,0.458,0.594,0.467c0.139,0.003,0.27-0.04,0.404-0.062
		c-0.048-0.665-0.104-1.34-0.16-2.019c-0.004-0.027-0.005-0.053-0.005-0.08c0.009-0.329,0.239-0.673,0.546-0.794
		c0.043-0.017,0.083-0.015,0.123-0.023c-0.151-1.013-0.067-2.287-1.618-1.918c1.423-1.499,2.539-0.717,3.703-0.873
		c1.549-0.208,1.083,1.975,2.01,2.516c0.103-0.096,0.202-0.189,0.305-0.283c-0.006-0.063-0.011-0.127-0.017-0.191
		C74.177,182.843,74.046,182.485,73.855,181.97z M86.899,182.152c0.04,0.579,0.057,0.86,0.096,1.457
		c-0.615-0.415-1.102-0.744-1.607-1.084c0.106,1.419,0.189,2.732,0.248,3.76c0.03,0.069,0.07,0.132,0.085,0.208l3.328-0.885
		c-0.046-0.866-0.117-1.962-0.201-3.134C88.145,182.357,87.553,182.262,86.899,182.152z M124.086,171.622
		c0.01,0.142,0.023,0.281,0.034,0.417c0.079-0.014,0.141-0.026,0.232-0.045C124.252,171.854,124.172,171.742,124.086,171.622z
		 M130.948,171.185c-0.457,0.322-0.954,0.795-1.497,1.454c0.377-0.909,0.827-1.622,1.321-2.188c-0.057-0.24-0.114-0.47-0.171-0.711
		c0.133-0.072,0.268-0.149,0.402-0.223c0.123,0.122,0.221,0.255,0.307,0.392c0.39-0.327,0.805-0.565,1.238-0.703
		c-0.021-0.266-0.043-0.53-0.066-0.796c-0.246,0.188-0.5,0.368-0.785,0.511c0.271-0.486,0.718-1.168,0.681-1.246
		c-0.375-0.778-0.314-1.22-0.107-1.506c-0.081-0.766-0.165-1.504-0.258-2.162c-0.593-0.349-1.087-0.957-2.017-0.458
		c-0.046,0.026-0.274-0.289-0.23-0.414c-0.122,0.111-0.24,0.218-0.347,0.314c-0.222,0.552-0.515,0.95-0.899,1.236
		c0.845,0.648,1.714,1.315,2.577,1.978c-0.751,1.198-1.817,1.549-2.965,1.119c-0.125,0.053-0.251,0.109-0.315,0.135
		c-0.112,0.33-0.215,0.631-0.321,0.944c0.098-0.172,0.243-0.32,0.419-0.389c0.332-0.135,0.624,0.045,0.655,0.396
		c0.063,0.706,0.118,1.409,0.168,2.103c0.168,0.531,0.278,1.097,0.387,1.583c-0.098,0.059-0.176,0.103-0.265,0.155
		c0.03,0.45,0.057,0.876,0.081,1.276c0.371-0.063,0.74-0.122,1.119-0.185c0.34-0.507,0.722-1.075,1.116-1.661
		C131.106,171.826,131.025,171.502,130.948,171.185z M136.921,170.255c0.12-0.207,0.243-0.377,0.369-0.537
		c-0.003-0.059-0.007-0.122-0.013-0.181C137.162,169.779,137.022,170.017,136.921,170.255z M124.154,172.495
		c0.004-0.008,0.01-0.011,0.017-0.02c-0.007,0.002-0.013,0.004-0.019,0.004C124.153,172.485,124.152,172.489,124.154,172.495z
		 M85.044,137.326c0.007-0.001,0.017-0.006,0.024-0.007l-0.011-0.029C85.052,137.302,85.049,137.313,85.044,137.326z
		 M107.31,160.732l-5.618,1.498c0.459,0.514,0.919,1.025,1.38,1.536c-0.165,0.188-0.329,0.377-0.495,0.565
		c-0.579-0.602-1.155-1.212-1.733-1.816c0.023-0.025,0.044-0.051,0.068-0.076l-1.177,0.313c0.583,0.578,1.181,1.126,1.852,1.561
		c1.632,1.064,3.604,1.607,5.427,2.375c-0.082,0.184-0.161,0.368-0.242,0.551c-0.365,0.011-0.791,0.138-1.088,0.014
		c-1.452-0.6-2.555-1.767-4.278-1.912c1.206,1.636,1.896,3.072,2.254,3.97c0.925,0.183,1.84,0.608,1.293,2.412
		c-0.281-0.147-0.535-0.284-0.8-0.427c0.432,3.115,0.726,7.57,0.868,10.055l3.401-0.907c-0.078-1.371-0.204-3.302-0.364-5.252
		c-0.013,0.009-0.024,0.019-0.037,0.028c0.01-0.055,0.018-0.096,0.027-0.15c-0.015-0.188-0.03-0.374-0.046-0.562
		c-0.003-0.028-0.004-0.055-0.003-0.079c0.006-0.211,0.121-0.407,0.273-0.567c0.145-0.792,0.281-1.524,0.395-2.15
		c0.723-0.707,1.357-1.329,1.944-1.904c0.266,0.973,0.539,1.986,0.766,2.825c-0.792,0.61-1.465,1.129-2.156,1.662
		c0.184,2.161,0.322,4.346,0.408,5.829l3.867-1.032c-0.159-2.781-0.501-7.877-0.984-10.775
		C112.511,168.309,111.386,164.402,107.31,160.732z M104.873,176.226c0.878-1.221,1.565-2.181,2.524-3.519
		C106.983,175.694,106.696,176.081,104.873,176.226z M110.552,168.667c-0.143-1.031-1.955-0.188-1.529-1.916
		C111.029,167.512,111.029,167.512,110.552,168.667z M123.132,175.587c-0.021-0.347-0.048-0.748-0.075-1.132
		c-0.754,0.597-1.113,0.359-1.071-1.093c-0.989,0.98-1.874,1.859-2.757,2.735c0.033,0.525,0.064,1.017,0.086,1.444l1.583-0.423
		c0.253-0.414,0.511-0.832,0.791-1.287c-0.008,0.393-0.013,0.735-0.02,1.081l1.09-0.291c0.065-0.116,0.136-0.24,0.2-0.352
		c-0.674-0.316-1.361-0.641-2.108-0.993C121.592,175.096,122.442,175.266,123.132,175.587z"/>
	<g>
		<path style="fill:#0C0C0C;" d="M152.776,115.02l17.352-4.577l-0.481,6.179l-3.969,1.047l0.156-2.009l-1.477,0.389l-0.891,11.442
			l1.615-0.426l-0.324,4.17l-9.691,2.556l0.325-4.17l1.615-0.426l0.891-11.442l-1.477,0.39l-0.156,2.009l-3.969,1.047
			L152.776,115.02z"/>
		<path style="fill:#0C0C0C;" d="M171.65,110.041l9.229-2.434l-0.324,4.17l-1.385,0.365l-0.891,11.442l1.385-0.365l-0.325,4.17
			l-9.229,2.434l0.324-4.17l1.385-0.365l0.891-11.442l-1.385,0.365L171.65,110.041z"/>
		<path style="fill:#0C0C0C;" d="M189.354,120.663l1.522-0.401l-0.324,4.17l-9.368,2.471l0.325-4.17l1.384-0.365l0.891-11.442
			l-1.384,0.365l0.324-4.17l10.821-2.854c0.939-0.247,1.78-0.37,2.526-0.367c0.745,0.002,1.361,0.159,1.85,0.471
			c0.488,0.311,0.846,0.793,1.074,1.447c0.228,0.654,0.301,1.507,0.219,2.559c-0.087,1.118-0.367,2.146-0.839,3.085
			c-0.473,0.938-1.114,1.68-1.925,2.226l0.003,0.248c1.457-0.134,2.117,0.672,1.982,2.417l-0.152,1.958l1.085-0.286l-0.325,4.17
			l-7.313,1.929l0.465-5.975c0.04-0.51,0.021-0.907-0.054-1.194c-0.076-0.287-0.219-0.483-0.43-0.584
			c-0.21-0.104-0.482-0.139-0.816-0.109c-0.334,0.03-0.739,0.108-1.216,0.233L189.354,120.663z M191.165,113.064
			c0.446-0.118,0.791-0.334,1.033-0.647c0.243-0.313,0.388-0.758,0.433-1.334l0.07-0.915c0.045-0.577-0.034-0.962-0.237-1.159
			c-0.203-0.195-0.528-0.234-0.975-0.116l-1.245,0.328l-0.325,4.171L191.165,113.064z"/>
		<path style="fill:#0C0C0C;" d="M212.741,103.287l-2.792,0.736l-0.313,4.017l2.03-0.535l-0.226,2.898l-2.03,0.535l-0.353,4.526
			l2.792-0.736l0.313-4.018l5.169-1.363l-0.638,8.188l-15.805,4.169l0.324-4.17l1.385-0.365l0.891-11.442l-1.385,0.365l0.325-4.17
			l15.805-4.169l-0.598,7.679l-5.168,1.363L212.741,103.287z"/>
		<path style="fill:#0C0C0C;" d="M150.788,140.558l17.352-4.577l-0.482,6.18l-3.969,1.047l0.156-2.01l-1.477,0.389l-0.891,11.443
			l1.615-0.426l-0.324,4.17l-9.691,2.556l0.325-4.17l1.615-0.426l0.891-11.443l-1.477,0.39l-0.156,2.01l-3.969,1.047
			L150.788,140.558z"/>
		<path style="fill:#0C0C0C;" d="M176.336,149.112l1.523-0.402l-0.324,4.17l-9.368,2.471l0.325-4.17l1.384-0.365l0.891-11.443
			l-1.384,0.365l0.324-4.17l10.821-2.855c0.938-0.247,1.78-0.369,2.525-0.367c0.746,0.003,1.362,0.16,1.851,0.47
			c0.488,0.313,0.846,0.795,1.074,1.448c0.228,0.654,0.301,1.506,0.219,2.558c-0.087,1.118-0.367,2.146-0.839,3.084
			c-0.473,0.938-1.114,1.681-1.925,2.226l0.004,0.248c1.456-0.136,2.117,0.67,1.98,2.417l-0.152,1.958l1.085-0.286l-0.325,4.17
			l-7.314,1.93l0.466-5.976c0.039-0.509,0.021-0.907-0.054-1.194c-0.076-0.287-0.22-0.481-0.43-0.583
			c-0.21-0.103-0.482-0.14-0.816-0.108c-0.334,0.029-0.739,0.107-1.216,0.233L176.336,149.112z M178.149,141.511
			c0.446-0.118,0.791-0.333,1.033-0.646c0.243-0.314,0.387-0.758,0.432-1.335l0.071-0.915c0.045-0.576-0.034-0.963-0.237-1.158
			c-0.203-0.195-0.528-0.235-0.975-0.117l-1.246,0.329l-0.324,4.171L178.149,141.511z"/>
		<path style="fill:#0C0C0C;" d="M197.01,143.658l1.385-0.365l-0.236-1.905l-3.114,0.822l-0.525,2.106l1.384-0.365l-0.324,4.17
			l-7.892,2.082l0.325-4.17l0.923-0.243l5.114-16.642l8.398-2.215l2.684,14.584l0.923-0.244l-0.324,4.17l-9.045,2.386
			L197.01,143.658z M195.761,139.38l2.123-0.56l-0.55-4.835l-0.23,0.061L195.761,139.38z"/>
		<path style="fill:#0C0C0C;" d="M217.298,134.447l5.538-1.461l-0.513,6.586c-0.324,0.285-0.714,0.599-1.17,0.944
			c-0.456,0.344-0.979,0.681-1.57,1.012c-0.591,0.33-1.256,0.651-1.996,0.962c-0.739,0.311-1.563,0.587-2.471,0.827
			c-1.354,0.357-2.563,0.492-3.625,0.408c-1.063-0.085-1.947-0.432-2.653-1.044c-0.706-0.61-1.216-1.51-1.53-2.697
			c-0.314-1.188-0.398-2.713-0.254-4.577c0.145-1.849,0.474-3.479,0.991-4.895c0.517-1.416,1.188-2.629,2.013-3.645
			c0.824-1.013,1.797-1.851,2.919-2.512c1.12-0.661,2.351-1.168,3.689-1.521c0.923-0.243,1.74-0.401,2.455-0.474
			c0.713-0.071,1.352-0.094,1.915-0.069c0.563,0.026,1.054,0.095,1.475,0.209c0.421,0.113,0.792,0.226,1.115,0.341l-0.495,6.356
			l-5.537,1.461l0.142-1.83c0.052-0.661-0.042-1.106-0.28-1.334c-0.238-0.227-0.619-0.273-1.142-0.135
			c-0.523,0.138-0.927,0.391-1.212,0.756c-0.285,0.366-0.452,0.88-0.504,1.541l-0.598,7.679c-0.052,0.661,0.041,1.105,0.28,1.333
			c0.238,0.228,0.619,0.273,1.142,0.135c0.523-0.138,0.926-0.39,1.211-0.755c0.284-0.366,0.453-0.879,0.504-1.54L217.298,134.447z"
			/>
		<path style="fill:#0C0C0C;" d="M242.732,120.391l-4.021,6.092l3.478,5.26l0.923-0.243l-0.325,4.17l-6.875,1.814l-3.104-6.005
			l-0.543,6.967l-7.844,2.069l0.324-4.17l1.385-0.365l0.891-11.443l-1.385,0.365l0.325-4.17l7.844-2.069l-0.532,6.841l4.755-7.955
			l5.953-1.57l-0.325,4.17L242.732,120.391z"/>
		<path style="fill:#0C0C0C;" d="M251.562,128.896c0.508-0.134,0.875-0.314,1.104-0.539c0.229-0.227,0.357-0.509,0.383-0.849
			c0.019-0.236-0.054-0.421-0.217-0.552c-0.163-0.131-0.504-0.245-1.025-0.34c-1.102-0.173-2.061-0.366-2.882-0.572
			c-0.82-0.206-1.49-0.5-2.011-0.877c-0.52-0.378-0.893-0.882-1.114-1.513c-0.222-0.629-0.294-1.445-0.216-2.445
			c0.073-0.949,0.274-1.836,0.602-2.663c0.328-0.824,0.817-1.584,1.466-2.279c0.65-0.694,1.488-1.314,2.518-1.859
			c1.03-0.546,2.283-1.013,3.76-1.403c1.338-0.353,2.587-0.537,3.749-0.553c1.161-0.015,2.115,0.119,2.862,0.403l-0.354,4.552
			l-4.846,1.278c0.038-0.491-0.059-0.793-0.291-0.907c-0.232-0.112-0.525-0.123-0.879-0.029c-0.508,0.134-0.879,0.302-1.113,0.506
			c-0.234,0.202-0.365,0.482-0.393,0.838c-0.023,0.288,0.081,0.468,0.309,0.54c0.229,0.074,0.573,0.132,1.037,0.176
			c0.867,0.087,1.683,0.204,2.448,0.35c0.764,0.147,1.426,0.404,1.984,0.771c0.56,0.367,0.982,0.878,1.271,1.533
			c0.288,0.654,0.39,1.524,0.306,2.609c-0.172,2.203-0.945,4.014-2.321,5.431c-1.376,1.418-3.31,2.455-5.802,3.112
			c-1.415,0.374-2.766,0.596-4.053,0.67c-1.285,0.073-2.307,0.028-3.061-0.139l0.392-5.034l5.075-1.339
			c-0.039,0.509,0.024,0.861,0.189,1.058C250.603,129.029,250.977,129.05,251.562,128.896z"/>
	</g>
</g>
</svg>
